<svg version="1.1" xmlns="http://www.w3.org/2000/svg" viewBox="0 0 683 569" width="683" height="569">
  <!-- svg-source:excalidraw -->
  
  <defs>
    <style class="style-fonts">
      @font-face {
        font-family: "Virgil";
        src: url("https://excalidraw.com/Virgil.woff2");
      }
      @font-face {
        font-family: "Cascadia";
        src: url("https://excalidraw.com/Cascadia.woff2");
      }
    </style>
    
  </defs>
  <g stroke-linecap="round" transform="translate(149 74) rotate(0 209 40)"><path d="M20 0 M20 0 C120.28 1.54, 218.07 2.37, 398 0 M20 0 C108.53 -0.71, 196.4 -0.43, 398 0 M398 0 C412.37 0.15, 418.03 6.56, 418 20 M398 0 C409.54 -1.27, 418.12 8.15, 418 20 M418 20 C417.35 31.97, 416.86 45.47, 418 60 M418 20 C417.83 34.45, 416.97 49.4, 418 60 M418 60 C419.45 75.07, 412.33 79.07, 398 80 M418 60 C420 72, 409.07 78.32, 398 80 M398 80 C318.12 79.53, 236.9 78.42, 20 80 M398 80 C260.18 78.91, 121.88 78.49, 20 80 M20 80 C6.07 79.74, -1.85 73.56, 0 60 M20 80 C8.54 80.59, -1.96 74.38, 0 60 M0 60 C-1.11 48.86, 1.81 40.03, 0 20 M0 60 C-0.42 48.9, -0.19 38.98, 0 20 M0 20 C0.8 8.3, 5.4 0.12, 20 0 M0 20 C-0.14 6.45, 7.08 -0.87, 20 0" stroke="#1e1e1e" stroke-width="1" fill="none"></path></g><g transform="translate(236.5875015258789 101.5) rotate(0 121.4124984741211 12.5)"><text x="121.4124984741211" y="0" font-family="Virgil, Segoe UI Emoji" font-size="20px" fill="#1e1e1e" text-anchor="middle" style="white-space: pre;" direction="ltr" dominant-baseline="text-before-edge">app A | app B | app C ...</text></g><g transform="translate(287 16.76160990712077) rotate(0 59 24.380804953560357)"><text x="0" y="0" font-family="Virgil, Segoe UI Emoji" font-size="19.50464396284829px" fill="#1e1e1e" text-anchor="start" style="white-space: pre;" direction="ltr" dominant-baseline="text-before-edge">Organization</text><text x="0" y="24.380804953560364" font-family="Virgil, Segoe UI Emoji" font-size="19.50464396284829px" fill="#1e1e1e" text-anchor="start" style="white-space: pre;" direction="ltr" dominant-baseline="text-before-edge">Environment</text></g><g stroke-linecap="round" transform="translate(313 177) rotate(0 123 40)"><path d="M20 0 M20 0 C66.38 -1.12, 114.41 0.32, 226 0 M20 0 C88.36 1.51, 155.93 0.55, 226 0 M226 0 C237.95 -0.49, 246.28 5.11, 246 20 M226 0 C239.49 -0.53, 243.75 7.35, 246 20 M246 20 C245.82 29.78, 244.15 39.81, 246 60 M246 20 C246.25 29.24, 246.13 38.43, 246 60 M246 60 C247.76 74.22, 239.63 81.28, 226 80 M246 60 C245.84 74.78, 240.04 79.92, 226 80 M226 80 C182.25 79.97, 139.74 82.29, 20 80 M226 80 C146.9 79.66, 69.88 78.83, 20 80 M20 80 C5.97 80.98, 0.06 74.37, 0 60 M20 80 C8.04 77.84, -1.6 73.56, 0 60 M0 60 C-1.47 47.94, -0.44 37.22, 0 20 M0 60 C-0.83 44.85, -0.57 29.23, 0 20 M0 20 C1.71 7.23, 5.47 0.56, 20 0 M0 20 C-0.07 6.94, 4.62 2.27, 20 0" stroke="#1e1e1e" stroke-width="1" fill="none"></path></g><g transform="translate(365.5875015258789 204.5) rotate(0 70.4124984741211 12.5)"><text x="70.4124984741211" y="0" font-family="Virgil, Segoe UI Emoji" font-size="20px" fill="#1e1e1e" text-anchor="middle" style="white-space: pre;" direction="ltr" dominant-baseline="text-before-edge">Data Catalog</text></g><g stroke-linecap="round" transform="translate(159 141) rotate(0 80 76.5)"><path d="M84.98 -0.71 C95.16 -1.49, 106.4 3.34, 115.91 8.34 C125.42 13.34, 135.14 21.24, 142.02 29.31 C148.9 37.39, 154.4 46.89, 157.2 56.78 C159.99 66.66, 160.47 78.35, 158.79 88.63 C157.11 98.91, 152.99 109.74, 147.09 118.43 C141.2 127.13, 132.47 135.25, 123.41 140.81 C114.34 146.38, 103.45 150.28, 92.72 151.82 C81.99 153.37, 69.58 152.62, 59.04 150.08 C48.5 147.55, 37.77 143.09, 29.48 136.59 C21.19 130.1, 14.2 120.67, 9.3 111.12 C4.4 101.56, 0.78 89.76, 0.07 79.26 C-0.63 68.77, 1.07 57.53, 5.06 48.17 C9.05 38.8, 16.3 30.29, 24.03 23.07 C31.75 15.85, 39.58 8.35, 51.4 4.83 C63.22 1.31, 85.77 1.92, 94.95 1.95 C104.12 1.99, 106.61 3.74, 106.46 5.05 M47.31 8.4 C56.31 3.3, 68.79 0.13, 79.35 -0.07 C89.91 -0.26, 100.6 3.31, 110.68 7.23 C120.75 11.15, 132.14 15.99, 139.81 23.45 C147.49 30.9, 153.47 41.79, 156.72 51.96 C159.96 62.13, 160.39 74.15, 159.31 84.45 C158.22 94.76, 155.33 105.12, 150.19 113.8 C145.05 122.47, 137.22 130.36, 128.47 136.53 C119.71 142.7, 108.11 148.12, 97.66 150.82 C87.2 153.52, 76.27 154.59, 65.73 152.73 C55.2 150.87, 43.56 145.96, 34.43 139.65 C25.3 133.35, 16.65 124.11, 10.96 114.88 C5.27 105.66, 1.75 94.41, 0.28 84.29 C-1.19 74.17, -0.97 63.64, 2.15 54.15 C5.27 44.66, 11.4 35.22, 18.98 27.34 C26.56 19.47, 42.91 9.83, 47.64 6.89 C52.38 3.94, 46.93 8.33, 47.41 9.67" stroke="#1e1e1e" stroke-width="1" fill="none"></path></g><g transform="translate(190.1189575050762 192.40633123922908) rotate(0 48.8125 25)"><text x="48.8125" y="0" font-family="Virgil, Segoe UI Emoji" font-size="20px" fill="#1e1e1e" text-anchor="middle" style="white-space: pre;" direction="ltr" dominant-baseline="text-before-edge">Mapping </text><text x="48.8125" y="25" font-family="Virgil, Segoe UI Emoji" font-size="20px" fill="#1e1e1e" text-anchor="middle" style="white-space: pre;" direction="ltr" dominant-baseline="text-before-edge">metadata</text></g><g transform="translate(477 534) rotate(0 8.225000381469727 12.5)"><text x="0" y="0" font-family="Virgil, Segoe UI Emoji" font-size="20px" fill="#1e1e1e" text-anchor="start" style="white-space: pre;" direction="ltr" dominant-baseline="text-before-edge">...</text></g><g stroke-linecap="round" transform="translate(91 10) rotate(0 262 78)"><path d="M14.56 52.41 C14.56 52.41, 14.56 52.41, 14.56 52.41 M14.56 52.41 C14.56 52.41, 14.56 52.41, 14.56 52.41 M1.57 74.49 C8.91 64.72, 14.31 58.07, 24.21 46.43 M1.5 74.09 C8.61 65.69, 15.14 58.94, 25.85 46.94 M3.7 80.65 C11.57 66.34, 22.74 58.44, 35.14 37.7 M2.57 77.93 C11.46 68.31, 21.34 57.37, 37.26 39.35 M5.63 82.56 C13.5 73.47, 22.84 58.82, 47.02 34.31 M3.88 83.17 C14.98 69.46, 26.82 57.18, 48.22 32.82 M5.4 88.76 C17.71 74.24, 28.91 58.22, 50.89 33.11 M5.83 87.43 C20.93 69.18, 37.94 48.11, 51.93 33.45 M7.06 92.75 C21.59 75.47, 35.07 56.86, 57.41 33.24 M5.06 92.89 C19.62 76.43, 34.44 60.86, 59.16 31.94 M6.72 96.17 C19.23 80.79, 35.12 64.24, 67.31 30.76 M8.95 95.48 C21.25 81.69, 31.62 69.09, 66.26 29.28 M11.19 99.54 C26.5 82.8, 41.94 62.55, 74.44 26.77 M11.88 98.55 C27.23 79.21, 43.42 60.12, 72.77 28.73 M15.28 101.64 C41.2 71.39, 65.58 43.39, 81.11 24.79 M15.03 102.27 C34.48 78.44, 54.38 55.77, 80.23 24.26 M15.79 102.47 C35.44 85.37, 50.78 63.26, 88.12 22.53 M17.85 103.51 C31.54 86.86, 47.59 69.33, 86.82 22.25 M22.14 105.68 C44.23 78.08, 69.87 49.49, 95.32 19.26 M21.31 106.29 C46.06 76.3, 71.88 47.69, 97.37 17.8 M21.67 110.26 C50.46 80.17, 74.96 50.81, 103.1 17.35 M22.69 108.39 C46.08 84.62, 67.16 57.65, 103.45 16.29 M27 112.23 C58.68 74.1, 88.51 40.86, 108.13 16.8 M27.42 111.04 C51.96 82.28, 75.89 53.29, 110.56 16.88 M29.29 116.34 C53.62 88.07, 74.02 61.85, 114.16 15.3 M29.98 113.57 C62.52 76.18, 97.64 36.21, 115.57 14.47 M34.92 116.22 C56.18 87.43, 79.93 60.92, 120.62 12.14 M33.01 115.54 C52.73 95.14, 70.48 74.52, 122.76 14.67 M38.13 119.37 C71.71 77.31, 103.33 39.33, 129.97 13.88 M37.55 116.68 C68.42 81.79, 100.03 45.28, 127.74 13.36 M42.35 118.04 C70.91 84.29, 99.35 49.33, 136.95 10.05 M40.84 119.8 C71.52 83.39, 102.85 48.38, 134.23 11.4 M46.11 120.73 C69.05 92.01, 96.69 61.23, 139.96 10.83 M45.83 121.15 C70.47 90.74, 97.52 62.56, 141.96 10.3 M47.1 121.06 C86.02 80.55, 125.13 35.38, 146.31 10.74 M47.73 123.37 C86.46 79.82, 124.19 35.14, 147.46 8.81 M52.1 124.76 C82.94 90.39, 111.94 59.6, 155.59 6.34 M53.45 123.39 C88.79 83.26, 123.89 42.5, 153.96 8.67 M57.66 126.34 C89.06 88.9, 121.92 51.49, 160.27 8.66 M56.88 125.07 C94.02 81.56, 133.22 36.55, 159.53 7.91 M59.38 128.28 C93.14 85.88, 129.79 47.09, 167.04 6.61 M59.63 127.35 C96.35 87.53, 130.78 47.05, 164.91 6.35 M64.58 129.7 C98.87 87.72, 138.13 46.24, 172.09 4.96 M64.26 128.96 C96.96 93.3, 128.78 55.83, 170.39 6.46 M66.26 133.33 C105.71 87.91, 146.58 42.03, 177.14 5.26 M67.79 132.24 C90.49 105.58, 112 78.68, 176.31 6.26 M71.08 134.4 C97.88 100.08, 125.55 71.02, 182.71 5.52 M72.2 132.13 C99.91 101.44, 126.85 69.09, 181.9 5.99 M74.7 134.64 C110.1 93.85, 144.96 56.41, 187.45 5.91 M75.28 133.02 C111.55 92.89, 147.81 52.03, 187.11 5.79 M79.08 133.67 C123.45 86.76, 166.96 34.25, 193.44 4.43 M80.45 134.18 C122.49 88.46, 160.64 41.96, 193.48 4.31 M85.09 137.44 C109.46 109.37, 133.05 81.44, 197.54 6.63 M85 135.17 C112.25 102.27, 142.35 69.76, 199.98 4.39 M87.88 135.96 C128.17 94.81, 161.6 50.38, 204.65 5.26 M89.85 137.49 C111.7 110.35, 134.88 83.98, 203.81 3.73 M94.8 138.18 C122.81 105.28, 149.65 75.66, 211.05 5.98 M95.1 138.47 C136.63 90.22, 178.4 42.39, 210.32 4.5 M98.13 136.71 C138.1 95.11, 177.54 46.13, 217.71 3.04 M99.25 137.94 C121.94 111.98, 146.36 83.27, 215.78 4.07 M104.29 139.01 C136.04 103.75, 166.88 68.03, 221.6 4.96 M101.97 140.42 C133.05 107.22, 160.61 73.7, 221.28 2.59 M106.55 140.06 C151.09 90.17, 196.38 40.41, 230.34 0.75 M107.32 141.7 C142.01 100.92, 177.66 59.63, 228.84 2.19 M110.99 141.3 C151.87 94.75, 192.17 49.9, 235.55 0.32 M111.23 142.81 C140.52 108.25, 169.47 75.73, 233.39 1.38 M116.48 143.6 C140.96 113.46, 169.88 82.76, 240.71 2.15 M116.04 142.91 C158.75 94.59, 201.33 45.1, 240.07 1.7 M121.38 141.91 C159.22 96.44, 201.93 52.48, 242.62 2.27 M120.69 142.94 C164.96 94.15, 208.67 44.1, 244.29 0.63 M127.38 145.69 C168.29 91.08, 214.26 37.85, 250.61 3.16 M125.18 144.02 C149.46 115.26, 175.62 87.04, 248.4 1.49 M131.65 144.64 C175.86 98.42, 218.81 45.6, 255.88 1.72 M130.13 144.12 C170.62 96.02, 214.44 47.11, 255.63 1.35 M135.34 144.36 C186.26 87.79, 233.77 33.74, 258.85 3.19 M135.91 145.72 C166.79 105.06, 200.86 68.81, 258.96 1.94 M140.34 147.28 C184.34 94.35, 229.05 46.87, 265.08 1.57 M140.85 145.69 C166.52 115.81, 192.07 87.06, 265.5 2.06 M142.52 148.12 C182.83 105.02, 217.23 61.76, 269.32 1.36 M145.11 146.73 C174.96 109.08, 206.92 73.75, 270.17 2.21 M151.05 147.33 C184.24 106.82, 215.84 71.3, 275.39 1.93 M149.42 147.75 C187.85 103.27, 224.44 61.95, 276.06 3.05 M155.1 149.98 C180.73 116.73, 203.09 88.49, 279.58 3.51 M154.4 148.78 C191.92 106.68, 227.72 63.65, 281.34 2.23 M158.39 147.51 C195.84 103.49, 232.5 60.4, 287.95 3.12 M158.61 147.65 C187.56 116.99, 214.73 84.11, 285.16 2.37 M161.93 148.63 C201.56 110.88, 235.05 67.65, 289.58 1.73 M163.81 148.86 C214.31 90.22, 263.85 33.2, 290.36 3.19 M167.32 148.76 C196.74 117.41, 222.43 88.46, 297.96 0.2 M167.78 150.03 C212.22 99.75, 254.78 48.91, 297.42 1.36 M173.96 149.49 C222.93 93.98, 269.34 36.17, 301.61 2.03 M172.12 151.24 C221.14 94.57, 268.43 37.16, 300.65 4.29 M175.85 151.49 C210.17 111.23, 245.85 71.11, 306.01 3.44 M176.51 151.03 C210.89 112.93, 245.84 73.72, 306.56 4.12 M182.1 150.21 C214.34 118.16, 241.5 84.66, 312.33 4.66 M181.81 151.95 C231.3 94.95, 280.42 38.92, 310.21 4 M185.68 152.82 C225.93 109.68, 262.55 69.22, 316.01 3.81 M188.28 152.55 C232.05 100.54, 278.1 46.44, 316.29 3.97 M192.67 153.65 C219.97 118.46, 253.66 84.89, 319.43 5.35 M191.44 152.76 C230.94 107.93, 271.5 61.65, 321.31 4.32 M197.56 155.6 C247.5 99.82, 296.01 42.66, 327.24 5.78 M196.84 154.28 C225.87 119.87, 253.58 84.6, 325.44 5.3 M202.64 152.38 C233.15 120.4, 265.95 81.31, 330.98 6.04 M201.97 154.74 C251.56 95.33, 303.61 37.05, 330.74 6.5 M205.91 153.14 C256.87 98.19, 305.13 40.44, 335.05 6.26 M205.78 155.4 C237.9 120.59, 268.2 85.12, 335.58 7.5 M211.74 152.96 C239.85 120.89, 270.67 87.75, 342.05 5.89 M211.78 155.47 C246.25 113.1, 282.79 71.83, 339.55 7.05 M216.85 155.73 C252.88 116.22, 287.36 75.13, 346.77 6.4 M217.62 154.11 C242.72 122.79, 269.67 93.12, 345.97 7.71 M223.01 154.9 C268.79 101.53, 317.78 43.68, 348.78 7.76 M222.28 155.03 C256.08 114.99, 290.79 75.37, 350.02 7.26 M226.25 156.61 C272.63 104.95, 316.96 53.21, 355.8 6.06 M226.83 154.65 C265.14 109.93, 303.38 66.87, 354.64 8.35 M233.57 156.44 C262.12 124.36, 287.64 92.9, 360.97 9.25 M231.67 154.78 C273.48 109.14, 312.7 63.09, 359.32 9.18 M236.93 154.26 C263.51 125.78, 292.29 91.74, 367.53 5.3 M238.03 156.5 C281.66 105.09, 326.44 52.87, 367.32 7.6 M240.54 156.03 C280.4 113.32, 312.72 71.84, 372.15 8.68 M241.83 155.84 C272.36 121.13, 302.67 86.16, 370.54 8.62 M246.14 157.37 C276.36 122.23, 304.23 90.09, 374.14 10.72 M246.47 156.42 C286.53 112.09, 323.97 67.48, 375.25 8.68 M252.4 157.35 C280.02 125.75, 307.6 88.94, 378.21 10.84 M252.74 157.1 C286.74 116.96, 320.41 77.1, 380.35 9.92 M256.79 157.34 C283.22 123.84, 309.88 94.48, 385.07 11.04 M258.26 155.91 C308.12 99.43, 358.08 43.67, 384.58 10.53 M263.68 158.54 C306.47 105.35, 351.33 55.54, 388.73 10.98 M262.1 157.45 C308.28 105.21, 354.05 53.88, 389.28 12.93 M268.84 157.31 C295.79 126.03, 322.83 97, 393.83 12.01 M268.79 157.27 C318.57 100.12, 369.27 41.05, 394.29 11.65 M274.24 156.7 C305.72 119.03, 336.17 82.5, 398.97 15.06 M273.66 157.31 C302.09 124.35, 330.8 92.49, 398.78 14.26 M278.6 156.1 C312.56 117.59, 346.93 78.28, 404.63 13.08 M278.94 156.54 C322.82 108.47, 364.64 59.96, 403.74 13.76 M283.37 154.42 C334.61 100.89, 380.36 45.01, 409.23 16.77 M284.28 156.12 C324.26 109.51, 363.69 61.41, 407.54 15.27 M290.08 153.79 C324.26 117.21, 357.52 77.85, 413.06 14.94 M289.58 156.04 C337.66 98.85, 385.19 43.87, 412.37 16.39 M295.66 157.24 C332.68 112.69, 366.52 72.76, 417.54 16.52 M296.86 154.82 C332.1 114.39, 365.51 74.24, 417.14 16.13 M301.69 156.41 C346.93 104.25, 388.37 57.57, 422.69 18.46 M301.1 154.11 C350.04 100.87, 397.58 48.39, 421.32 16.81 M305.77 153.2 C348.05 107.46, 389.83 59.51, 424.28 16.94 M308.06 154.38 C337.71 120.13, 368.54 83.93, 425.75 18.23 M314.82 155.47 C336.02 126.34, 363.7 100.43, 429.88 20.78 M313.14 153.58 C349.41 114.28, 385.62 71.98, 429.18 21.07 M320.38 154.76 C348.17 119.42, 382.21 83.06, 431.5 23.38 M319.24 152.78 C362.59 105.05, 405.98 53.28, 434.42 21.77 M323.92 153.93 C346.89 128.32, 371.59 98.47, 436.91 20.94 M323.57 152.83 C366.99 103.93, 411.66 52.78, 438.23 22.72 M328.19 152.89 C371.79 104.75, 411.53 55.46, 441.62 25.14 M329.52 152.02 C364.28 113.83, 396.36 76.68, 442.76 23.91 M333.16 153.75 C368.99 111.11, 405.39 72.4, 447.5 25.52 M334.17 154.24 C378.56 103.81, 424.45 52.22, 446.82 25.33 M340.64 152.51 C375.15 115.01, 408.09 74.94, 451.47 26.01 M339.42 154.61 C366.62 120.51, 394.37 89.67, 449.98 26.37 M343.67 151.8 C382.61 111.08, 421.93 67.93, 455.4 27.53 M344.91 153.18 C387.64 107.94, 428.95 61.04, 455.09 28.49 M351.77 151.75 C390.6 104.65, 431.01 59.44, 459.51 28.24 M351.81 151.81 C393.54 104.05, 435.66 55.84, 459.15 28.37 M356.32 150.23 C387.5 112.75, 422.22 74.94, 464.33 30.19 M357.7 151.32 C391.16 113.01, 424.66 74.07, 463.83 30.57 M362.43 151.24 C396.24 111.6, 432.61 70.63, 467.29 31.79 M363.03 149.92 C392.87 118.87, 423.14 84.43, 467.6 30.9 M369.04 150.63 C395.25 118.54, 425.22 86, 470.1 33.47 M368.69 149.84 C395.3 121.68, 419.51 92.18, 471.63 32.16 M376.79 148.55 C398.9 119.91, 421.83 92.73, 476.68 32.62 M374.47 149.76 C411.14 108.34, 447.35 66.14, 477.22 31.96 M379.41 147.32 C407.23 116.2, 434.91 84.35, 480.55 33.8 M381.92 147.68 C418.76 107.93, 454.73 64.67, 479.8 34.93 M385.03 147.47 C405.62 125.57, 429.15 102.97, 482.67 38.63 M386.23 148.89 C413.05 118.79, 440.06 88.43, 484.2 37.59 M394.08 146.08 C417.06 119.2, 438.07 94.27, 486.2 37.31 M393.67 147.3 C423.62 111.94, 452.79 79.37, 488.04 39.77 M397.39 148.53 C420.26 120.47, 440.37 98.48, 489.81 39.7 M398.17 147.16 C434.94 105.73, 470.3 65.38, 490.5 40.79 M407.36 145.4 C426.71 118.92, 453.69 91.56, 494.27 41.86 M406.09 144.91 C430.12 115.95, 454.46 87.69, 495.46 43.84 M414.1 142.45 C445.13 104.74, 480.33 66.61, 499.78 45.66 M412.85 143.16 C432.42 118.99, 454.85 92.56, 498.4 44.64 M417.94 140.01 C447.7 111.24, 472.84 83.87, 501.32 48.53 M418.94 141.01 C444.34 112.39, 468.71 83.28, 502.21 47.08 M426.83 141.45 C455.43 103.42, 485.82 69.35, 505.26 47.85 M425.94 140.52 C450.45 110.63, 477.52 79.62, 505.41 48.68 M430.9 138.85 C457.73 108.86, 478.42 82.23, 507.33 51.63 M432.53 139.34 C461.78 103.75, 491.53 70.97, 508.56 51.19 M440.55 136.71 C461.34 113.42, 478.88 89.57, 513.95 54.77 M439.16 138.37 C458.61 114.64, 479.6 91.78, 511.24 53.76 M444.99 137.58 C464.36 110.98, 484.72 89.63, 514.28 55.93 M446.08 136.42 C471.1 105.87, 497.98 76.66, 514.49 57.88 M452.26 131.58 C474.24 110.58, 493.39 84.72, 515.33 62.46 M453.94 131.61 C469.78 114, 486.35 96.49, 515.59 61.24 M461.27 129.55 C476.51 113.43, 488.22 97.2, 517.51 65.15 M461.31 129.53 C478.49 111.23, 492.71 92.77, 518.02 64.39 M472.36 124.96 C487.57 106.71, 500.41 89.87, 519.78 65.36 M469.8 125.15 C482.38 112.38, 492.1 100.35, 520.26 66.95 M479.95 122.37 C496.93 100.31, 513 80.34, 522.38 69.5 M480.28 122.23 C492.9 105.22, 508.02 89.56, 522.94 69.95 M489.26 118.16 C496.79 106.14, 504.67 98.44, 523.45 73.43 M488.02 117.94 C495.69 108.1, 504.47 97.56, 525.05 75.29 M496.9 116.38 C498.63 110.35, 507.73 100.89, 524.39 82.44 M494.93 115.84 C504.87 104.08, 513.41 94.91, 523.82 83.62" stroke="#ffc9c9" stroke-width="0.5" fill="none"></path><path d="M365.96 7.13 C387.97 8.68, 408.71 14.22, 427.08 18.49 C445.44 22.77, 462.33 27.27, 476.15 32.79 C489.96 38.31, 502.04 44.91, 509.97 51.62 C517.9 58.33, 522.46 65.87, 523.72 73.06 C524.98 80.25, 522.47 87.91, 517.54 94.77 C512.61 101.62, 504.86 108.04, 494.13 114.18 C483.41 120.32, 469.43 126.57, 453.21 131.61 C436.98 136.65, 417.07 141, 396.77 144.43 C376.48 147.86, 353.97 150.14, 331.43 152.17 C308.88 154.21, 284.87 156.51, 261.48 156.64 C238.1 156.78, 213.79 155.14, 191.11 152.99 C168.43 150.85, 145.51 147.28, 125.39 143.77 C105.27 140.26, 86.58 137.09, 70.41 131.94 C54.23 126.79, 39.14 119.32, 28.35 112.87 C17.56 106.42, 10.34 99.89, 5.68 93.26 C1.02 86.64, -1.05 79.89, 0.39 73.13 C1.83 66.36, 6.29 59.49, 14.32 52.68 C22.36 45.86, 34.96 38.16, 48.61 32.25 C62.25 26.34, 78.05 21.6, 96.22 17.22 C114.4 12.84, 135.76 8.7, 157.66 5.95 C179.56 3.19, 204.09 1.42, 227.63 0.7 C251.16 -0.02, 273.58 0.49, 298.88 1.62 C324.17 2.75, 364.31 5.91, 379.4 7.47 C394.49 9.03, 391.59 9.63, 389.42 10.98 M225.26 2.22 C246.97 -0.41, 272.5 -1.58, 295.87 -0.66 C319.24 0.26, 343.51 4.52, 365.46 7.74 C387.42 10.97, 409.21 14.56, 427.58 18.68 C445.95 22.79, 462.03 27.19, 475.68 32.43 C489.33 37.66, 501.8 43.35, 509.51 50.1 C517.22 56.85, 520.15 65.6, 521.92 72.91 C523.69 80.23, 524.73 87.36, 520.13 93.98 C515.52 100.61, 505.38 106.27, 494.28 112.66 C483.18 119.06, 469.17 126.99, 453.53 132.35 C437.9 137.7, 420.4 141.53, 400.45 144.8 C380.5 148.06, 356.91 150.04, 333.82 151.93 C310.73 153.81, 285.35 156.11, 261.9 156.1 C238.45 156.09, 215.39 153.52, 193.1 151.86 C170.82 150.2, 148.39 149.46, 128.17 146.15 C107.96 142.84, 88.03 137.25, 71.81 132.02 C55.6 126.79, 42 121.01, 30.9 114.77 C19.8 108.53, 10.24 101.78, 5.21 94.58 C0.18 87.39, -0.83 78.61, 0.73 71.62 C2.3 64.63, 6.63 59.23, 14.61 52.63 C22.59 46.04, 35.33 38.06, 48.62 32.04 C61.91 26.03, 76.47 20.85, 94.33 16.54 C112.2 12.22, 133.88 8.75, 155.82 6.14 C177.76 3.53, 214.15 1.65, 225.97 0.87 C237.79 0.1, 226.2 0.44, 226.75 1.49" stroke="#1e1e1e" stroke-width="1" fill="none"></path></g><g stroke-linecap="round" transform="translate(70 146) rotate(0 270 120.5)"><path d="M22.9 72.91 C22.9 72.91, 22.9 72.91, 22.9 72.91 M22.9 72.91 C22.9 72.91, 22.9 72.91, 22.9 72.91 M1.14 104.28 C8.18 94.9, 17.65 85.46, 38.95 59.25 M3.14 102.36 C12.31 91.49, 21.28 81.54, 39.08 58.93 M6.95 107.04 C25.08 82.86, 43.34 59.87, 57.75 45.55 M4.91 105.53 C23.05 86.28, 41.03 65.42, 56.38 46.1 M3.59 112.29 C21.22 90.94, 38.37 75.26, 60.59 46.34 M4.91 110.82 C23.78 90.27, 42.51 69.51, 59.52 47.84 M4.53 115.56 C23.03 95.62, 41 75.27, 66.81 46.18 M4.7 117.9 C20.33 100.85, 35.33 83.94, 68.91 45.69 M6.54 124.12 C22.02 105.38, 37.7 89.32, 77.13 40.82 M4.31 122.93 C25.94 100.95, 44.79 77.96, 77.22 40.89 M5.21 131.22 C31.85 101.68, 57.65 68.36, 86.3 39.54 M4.72 129.32 C32.26 95.95, 61.27 65.24, 83.98 38.29 M3.41 135.42 C31.87 107.08, 54.69 76.86, 94.14 33.73 M6.3 136.67 C23.3 114.71, 40.67 95.11, 93.63 35.47 M5.57 140.42 C41.25 103.24, 73.85 65.31, 103.93 29.48 M7.99 139.03 C36.16 107.3, 63.87 74.98, 101.81 30.85 M7.41 141.36 C48.83 98.25, 87.38 50.23, 111.42 25.9 M9.14 142.78 C38.64 109.9, 67.4 75.46, 109.44 26.51 M11.67 147.64 C51.51 102.14, 90.37 56.39, 117.19 25.38 M12.05 147.99 C50.72 102.35, 88.85 57.77, 116.94 26.05 M12.34 149.19 C42.05 117.09, 74.37 79.91, 122.97 24.21 M14.26 150.24 C53.2 104.63, 94 56.75, 123.61 23.69 M17.79 153.11 C60.08 105.4, 102.74 56.62, 128.66 22.61 M16.65 153.71 C58.42 102.46, 102.69 52.29, 130.56 21.81 M18.4 158.66 C41.23 127.18, 70.07 97.67, 137.43 19.05 M17.02 157.78 C64.78 103.39, 114.21 49.66, 136.79 19.87 M20.28 162.37 C53.42 122.54, 87.56 83.6, 144.01 16.57 M20.75 162.63 C58.12 119.05, 93.85 77.13, 145.48 18.22 M22.27 164.57 C66.03 114.33, 109.68 64.23, 149.05 15.59 M21.82 165.33 C66.41 115.9, 112.13 63, 151.27 17.44 M25.51 169.81 C68.59 117.53, 116.71 63.16, 159.28 16.11 M25.34 168.88 C75.35 109.28, 127.74 49.5, 158.52 16.08 M28.89 172.31 C75.48 114.01, 123.64 62.25, 164.19 13.96 M27.09 170.85 C71.45 121.57, 114.17 72.79, 164.47 13.49 M29.28 173.28 C60.53 141.3, 90.98 108.4, 169.79 11.37 M31.49 173.35 C64.4 135.84, 98.7 97.73, 171.73 11.6 M32.56 175.58 C86.52 115.36, 137.07 56.79, 177.17 10.48 M34.01 175.98 C66.14 140.86, 97.23 104.11, 177.86 11.58 M35.64 179.66 C68.31 138.39, 104.02 99.62, 182.49 9.94 M35.92 179.32 C94.56 113.18, 150.85 46.24, 183.72 9.84 M38.56 181.46 C81.96 133.57, 123.77 86.16, 190.52 7.94 M40.29 182.19 C85.66 127.56, 131.19 75.41, 188.68 10.13 M44.08 185.52 C97.09 117.98, 153.71 55.04, 194.62 7.09 M42.37 184.94 C83.28 137.66, 124.16 91.16, 196.42 9.07 M45.56 185.56 C83.5 143.39, 119.76 101.81, 202.66 8.77 M46.34 186.81 C84.85 143.14, 123.1 99.2, 200.72 8.24 M50.37 191.03 C93.27 141.12, 134.91 92.9, 206.33 8.44 M48.92 189.09 C90.17 143.82, 130.71 96.84, 207.34 7.11 M51.05 191.22 C106.17 128.12, 157.49 68.34, 212.73 7.72 M52.55 192.49 C90.14 148.24, 127.54 104.88, 212.42 7.21 M55.03 194.76 C118.37 124.05, 182.02 50.33, 220.78 6.11 M54.24 195.39 C90.61 152.28, 127.19 110.15, 219.24 5.27 M57.61 196.01 C108.75 137.51, 160.8 77.6, 226.62 5.63 M59.8 196.34 C106.07 142.81, 151.66 88.86, 225.81 4.85 M63.3 196.33 C110.35 145.28, 157.08 90.27, 230.09 3.2 M63.43 197.54 C96.74 156.64, 132.56 116.43, 231.53 3.37 M67.11 198.24 C110.78 148.72, 154.26 100.41, 237.68 2.44 M66.4 200.35 C121.26 138.32, 175.5 75.31, 239.38 1.2 M70.45 202.13 C124.15 137.04, 178.88 76.23, 243.68 1.09 M70.94 200.89 C127.5 135.87, 185.21 71.57, 243.52 1.46 M74.1 202.78 C132.12 137.28, 189.52 71.48, 248.46 1.89 M74.99 202.04 C130.21 138.99, 184.23 76.84, 249.66 0.64 M78.51 204.49 C138.65 134.6, 199.99 64.9, 253.52 2.49 M78.03 205.12 C122.97 151.03, 168.66 99.46, 254.44 1.93 M82.77 204.87 C119.54 159.76, 160.23 115.52, 259.01 2.48 M81.52 206.14 C145.15 133.95, 209.12 60.67, 261.02 0.54 M84.92 206.82 C125.83 162.69, 167.33 113.83, 266.08 1.01 M85.28 208.06 C150.52 131.78, 216.86 54.69, 265.74 1.34 M90.11 209.33 C142.67 151.51, 193.65 92.61, 268.82 0.31 M89.42 209.74 C151.95 137.7, 214.26 65.1, 271.02 1.01 M92.42 212.53 C153.66 139.27, 216.32 67.89, 275.29 2.7 M93.94 211.34 C163.31 130.43, 234.68 49.2, 275.38 1.8 M98.23 212.38 C139.07 166.35, 180.32 118.79, 280.52 3.15 M97.44 213.28 C157.85 144.68, 217.99 75.24, 281.2 1.31 M102.22 214.17 C146.03 163.54, 189.78 113.84, 287.86 0.45 M101.48 214.74 C161.84 146.61, 222.4 79.09, 286.76 1.72 M105.16 217.2 C177.29 131.05, 251.27 49.49, 291.26 2.55 M105.36 216.54 C169.46 144.09, 234.33 69.27, 292.25 1.91 M109.24 215.97 C182.83 132.03, 257.21 49.82, 297 0.27 M109.84 216.4 C175.89 139.1, 242.35 63.73, 297.1 1.25 M114.54 217.85 C164.84 156.66, 220.7 94.68, 303.03 0.16 M113.64 218.77 C185.35 135.65, 258.16 52.25, 302.85 0.89 M117.81 219 C169.54 165.2, 217.99 106.09, 307.85 2 M117.43 220.26 C181.73 148.82, 243.8 76.17, 306.85 2.2 M121.89 222.07 C172.49 161.72, 224.29 102.14, 310.08 2.09 M121.13 220.92 C166.66 168.14, 211.98 115.33, 311.56 2.88 M126 223.61 C169.18 173.53, 212.68 124.26, 315.94 2.54 M125.54 222.53 C179.54 159.13, 232.21 97.84, 317.06 2.83 M129.37 224.79 C176.57 168, 227.97 113.43, 320.09 3.18 M129.9 224.06 C177.71 168.48, 224.79 113.91, 322.08 4.04 M134.04 224.94 C185.95 167.71, 235.05 112.07, 326.84 6.33 M135.4 224.49 C195.89 155.29, 255.64 87.59, 325.74 4.52 M140.09 225.48 C214.51 141.66, 291.12 54.17, 330.98 5.05 M138.92 224.98 C207.22 148.88, 274.43 72.04, 331.47 4.85 M142.44 226.42 C188.16 175.58, 230.42 127.88, 335.98 6.57 M144.01 227.22 C198.6 163.78, 255.13 98.81, 335.39 5.86 M147.05 227.36 C224.59 139.4, 301.45 49.8, 340.8 5.63 M147.18 228.11 C191.83 180.39, 234.92 130.84, 340.65 6.31 M152.77 229.96 C193.38 185.55, 232.11 140.26, 346.14 7.02 M151.79 228.61 C222.27 148.37, 292.85 67.55, 345.79 7.14 M155.57 229.96 C200.64 179.07, 247.73 125.28, 350.2 8.8 M155.92 229.85 C227.1 150.97, 296.85 71.41, 350.17 7 M160.26 231.57 C231.34 149.42, 303.68 68.86, 354.96 9.89 M160.26 231.56 C210.84 174.55, 259.86 118.29, 354.24 8.03 M163.84 233.55 C208.62 185.04, 250.13 136.67, 358.93 10.32 M164.91 232.71 C240.15 146.95, 312.99 62.07, 359 9.04 M170.16 234.68 C227.35 168.4, 286.37 100.28, 363.43 10.74 M169.84 232.85 C236.63 155.01, 305.32 76.43, 364.77 9.14 M174.02 233.97 C234.71 164.58, 295.16 95.76, 368.33 9.68 M173.84 233.46 C240.13 160.03, 305.29 85.93, 369.21 9.87 M179.73 235.34 C231.05 173.9, 284.1 113.47, 372.36 11.14 M178.94 234.2 C226.14 184.03, 269.59 133.17, 373.48 10.53 M183.55 234.52 C229.89 182.89, 274.62 133.1, 377.83 10.81 M184.72 234.22 C256.61 151.26, 329.9 66.21, 378.78 11.17 M189.97 234.84 C260.91 153.79, 333.65 70.53, 381.95 12.62 M188.98 235 C252.6 162.46, 315.06 89.71, 383.64 12.4 M194.8 236.32 C262.29 160.05, 327.32 82.38, 386.85 14.77 M193.07 236.56 C252.42 167.87, 311.17 98.74, 387.17 13.76 M198.83 236.68 C270.88 152.96, 345.61 70.03, 392.9 13.07 M198.41 235.85 C245.69 181.43, 293.82 127.17, 391.31 15.16 M202.75 238.24 C275.28 153.4, 348.19 70.31, 396.19 14.41 M204.47 236.27 C250.18 186.69, 294.53 135.25, 396.03 15.96 M208.66 236.99 C260.76 177, 314.97 117.7, 401.63 17.05 M207.86 237.19 C263.21 171.97, 320.37 106.48, 400.55 17.12 M211.97 238.46 C270.4 170.71, 328.92 104.27, 404.94 18.96 M213.71 237.5 C270.34 172.65, 327.3 107.85, 405.32 18.12 M218.11 237.85 C284.97 162.02, 351.66 83.91, 408.71 18.77 M218.76 238.51 C277.34 168.64, 339.72 98.94, 408.81 19.03 M222.58 238.88 C268.57 185.94, 312.17 133.89, 412.63 22.08 M222.68 238.6 C290.18 161.03, 357.6 83.17, 413.26 21.19 M227.26 239.89 C282.85 176.69, 337.04 114.15, 417.37 21.38 M227.29 240.59 C277.96 182.95, 327.81 126.93, 416.63 21.81 M232.41 240.72 C303.39 162.34, 370.55 82.25, 420.36 24.1 M232.91 240.37 C287.57 176.85, 341.7 115.02, 421.12 22.88 M238.44 240.76 C290.74 178.14, 343.13 119.47, 425.73 23.55 M237.9 240.28 C278.01 191.93, 320.6 142.35, 425.04 24.29 M244.46 239.16 C283.22 194.95, 322.26 149.05, 431.39 26.19 M243.22 239.99 C300.19 172.61, 357.92 106.03, 430.14 25.98 M247.74 241.13 C306.12 173.61, 362.44 104.23, 433.25 25.51 M248.1 240.19 C320.08 156.2, 393.18 70.79, 433.86 27.02 M252.03 242.28 C316.37 166.82, 382.81 91.63, 437.8 27.99 M252.25 241.64 C298.26 186.74, 344.2 134.11, 439.5 26.29 M259.25 239.42 C310.85 180.83, 364.02 121.16, 441.92 27.5 M258.9 241.3 C318.77 173.23, 378.7 104.78, 443.61 28.4 M262.71 239.97 C321.02 175.17, 379.69 109.25, 447.68 31.46 M263.46 241.32 C309.81 188.72, 356.19 134.95, 446.96 30.74 M269.1 241.69 C318.27 182.35, 368.1 126.04, 449.77 33.61 M268.66 241.3 C311.37 192.69, 354 142.9, 449.65 32.37 M273.37 241.96 C326.21 184.64, 375.98 125.02, 455.09 33.25 M274.6 241.29 C328.66 176.76, 384.87 112.8, 454.53 33.97 M277.96 242.63 C330.51 184.1, 384.48 121.24, 456.25 36.47 M278.87 240.75 C339.48 171.53, 399.33 102.12, 457.65 35.41 M282.73 240.32 C354.82 161.59, 421.53 81.9, 463.01 36.18 M284.89 242.48 C340.17 177.19, 395.62 114.58, 461.76 38.01 M288.82 240.63 C346.85 176.97, 406.13 108.11, 466.73 37.91 M289.48 240.76 C344.85 179.07, 398.62 117.92, 465.73 38.82 M294.99 242.73 C331.51 197.03, 370.42 153.77, 468.97 42.35 M294.76 241.39 C362.32 163.75, 429.6 87.16, 468.94 41.58 M301.2 243.55 C347.39 185.49, 396.25 128.64, 474.05 42.97 M300.04 241.45 C367.5 165.98, 434.4 89.78, 473.13 43.23 M303.57 242.67 C358.66 183.13, 412.44 119.41, 476.77 43.68 M304.53 243.15 C369.26 166.45, 435.01 89.87, 477.23 43.96 M311.37 242.85 C354.37 192.12, 396.5 144.29, 479.58 47.33 M310.9 242.06 C361.77 182.79, 412.2 123.8, 480.28 46.38 M317.66 241.81 C358.85 190.96, 399.44 145.27, 482.83 48.67 M316.49 242.41 C377.75 170.13, 440.95 97.78, 483.53 49.02 M320.78 240.22 C360.73 194.3, 402.57 147.55, 489.33 51.39 M322.97 239.96 C378.07 174.04, 435.56 108.09, 486.98 50.12 M329.1 240.73 C386.98 171.1, 450.89 100.08, 491.1 51.54 M327.95 239.89 C384.29 176.37, 440.08 110.99, 491.54 52.43 M332.79 238.83 C374.96 193.96, 414.13 150.07, 492.83 55.52 M333.29 240.15 C378.2 187.04, 425.16 133.15, 494.81 54.88 M339.06 239.32 C382.78 187.53, 426.36 135.82, 497.4 57.7 M339.67 239.14 C389.81 179.74, 441.14 121.89, 496.83 56.71 M347.19 238.2 C403.24 170.1, 460.53 103.05, 501.91 60.15 M345.07 237.94 C386.66 189.22, 428.83 140.67, 501.17 60.5 M350.85 238.38 C398.76 183.93, 446 127.67, 504.59 61.37 M352.48 237.4 C389.45 191.95, 427.45 149.81, 502.88 62.92 M356.18 235.05 C408.54 179.27, 457.81 121.19, 506.31 64.17 M358.43 237.32 C404.64 182.73, 451.21 130.26, 506.49 65.43 M364.34 235.21 C399.82 194.85, 438.77 152.15, 511.08 67.57 M364.04 236.94 C404.71 187.24, 447.06 139.77, 510.54 66.75 M370.97 233.3 C417.97 177.53, 464.86 125.12, 514.56 70.84 M372.25 233.13 C428.74 169.02, 485.1 105.36, 512.95 69.96 M379.18 233.04 C411.2 189.88, 446.97 149.49, 517.97 71.75 M378.26 231.62 C422.45 181.44, 466.74 129.94, 515.65 72.71 M386.01 230.2 C436.49 170.71, 487.97 113.42, 520.03 74.44 M384.59 230.38 C436.6 169.51, 487.83 110, 519.98 74.31 M390.66 229.71 C431.68 183, 473.25 134.18, 520.67 77.4 M392.1 226.96 C425.25 188.31, 459.05 148.52, 522.56 78.67 M398.96 225.22 C444.03 169.22, 495.84 114.64, 522.63 82.79 M398.93 226.85 C440.56 178.57, 481.54 130.71, 524.82 80.91 M404.96 224.84 C449.83 173, 495.74 117.98, 525.06 85.31 M405.18 223.92 C449.17 173.43, 492.32 124.05, 526.95 83.93 M413.35 223.12 C441.75 190.03, 470.93 154.62, 530.36 88.77 M411.02 222.65 C448.77 179.99, 487.05 136.1, 528.35 88.76 M419.97 219.45 C448.68 186.76, 474.33 155.58, 531.25 93.62 M418.97 220.03 C448.04 189.27, 475.86 157.11, 531.66 92.51 M427.5 217.81 C448.2 193.79, 470.13 169.11, 532.49 94.77 M426.59 219.89 C452.44 188.46, 478.79 159.06, 532.51 95.74 M433.83 217.16 C462.52 184.76, 488.66 153.15, 536.58 98.62 M432.81 216.79 C465.39 177.6, 500.64 138.71, 536.09 100.09 M441.03 213.18 C465.57 185.63, 490.63 157.7, 539.38 102.11 M441.88 212.32 C467.07 182.51, 493.33 153.95, 536.85 102.8 M450.47 211.13 C472.01 182.1, 497.01 152.9, 537.87 104.58 M450.43 209.46 C467.3 187.94, 486.81 166.07, 539.16 107.12 M459.06 207.4 C483.1 176.12, 508.29 147.23, 539.86 113.1 M458.7 204.69 C484.73 175.95, 509.49 148.59, 538.99 113.13 M467.02 201.57 C496.2 170.96, 520.22 140.71, 538.84 117.4 M468.27 201.54 C481.57 184.29, 496.75 167.03, 539.76 119.3 M475.54 197.45 C497.39 173.36, 515.99 151.7, 539.87 124.35 M476.7 198.25 C498.92 170.53, 523.44 143.62, 538.17 126.39 M484.45 196.46 C495.46 180.69, 508.44 169.18, 537.84 130.15 M483.16 196.54 C497.32 179.68, 512.45 162.13, 539.43 132.26 M498.43 184.78 C509.18 171.78, 521.66 159.03, 539.14 137.72 M497.62 183.44 C509.23 171.62, 517.79 160.58, 538.95 138.72 M515.17 172.7 C516.53 169.44, 522.34 163.9, 525.61 157.56 M512.94 174.04 C516.99 168.43, 520.35 163.6, 527.18 158.97" stroke="#a5d8ff" stroke-width="0.5" fill="none"></path><path d="M308.85 0.6 C331.45 0.06, 354.97 4.87, 376.42 9.08 C397.87 13.3, 419.33 19.38, 437.56 25.9 C455.8 32.41, 472.03 39.89, 485.83 48.19 C499.63 56.48, 511.64 66.16, 520.36 75.69 C529.08 85.21, 535.33 95.14, 538.13 105.33 C540.94 115.51, 540.42 126.49, 537.17 136.81 C533.93 147.12, 527.86 157.57, 518.65 167.21 C509.44 176.84, 496.28 186.37, 481.92 194.62 C467.55 202.88, 450.98 210.44, 432.44 216.76 C413.9 223.07, 392.43 228.54, 370.67 232.51 C348.91 236.48, 325.17 239.5, 301.85 240.57 C278.54 241.64, 253.83 240.46, 230.75 238.94 C207.67 237.42, 184.56 235.4, 163.38 231.44 C142.2 227.48, 122.03 221.59, 103.68 215.18 C85.33 208.78, 67.19 201.39, 53.28 193 C39.36 184.61, 28.63 174.65, 20.2 164.84 C11.77 155.03, 5.71 144.42, 2.69 134.12 C-0.33 123.83, -1.27 113.25, 2.07 103.09 C5.41 92.92, 13.55 82.62, 22.71 73.12 C31.88 63.62, 42.89 54.16, 57.05 46.08 C71.22 37.99, 89.1 30.7, 107.7 24.61 C126.31 18.51, 147.03 13.6, 168.68 9.5 C190.34 5.41, 212.53 1.28, 237.66 0.06 C262.79 -1.15, 304.61 1.43, 319.45 2.23 C334.3 3.02, 327.68 3.05, 326.72 4.84 M145.85 14.54 C163.68 8.33, 189.68 5.14, 212.53 2.56 C235.38 -0.03, 259.97 -1.7, 282.96 -0.96 C305.95 -0.21, 328.5 3.61, 350.46 7.03 C372.43 10.46, 394.68 14.2, 414.72 19.59 C434.76 24.98, 455.12 32.01, 470.72 39.36 C486.32 46.71, 497.75 54.38, 508.32 63.7 C518.89 73.02, 528.7 84.68, 534.15 95.28 C539.6 105.89, 542.26 117, 541.04 127.32 C539.81 137.63, 534.22 147.29, 526.8 157.18 C519.38 167.07, 509.12 178.08, 496.5 186.64 C483.88 195.2, 467.92 201.65, 451.06 208.54 C434.21 215.43, 416.09 223.24, 395.36 227.98 C374.63 232.72, 349.63 234.7, 326.69 236.96 C303.76 239.22, 281.03 241.63, 257.74 241.54 C234.45 241.45, 209.16 239.5, 186.93 236.4 C164.7 233.3, 143.65 228.7, 124.34 222.92 C105.03 217.14, 86.77 209.61, 71.07 201.72 C55.37 193.84, 40.82 185.05, 30.14 175.61 C19.45 166.16, 12.09 155.3, 6.95 145.04 C1.81 134.79, -1.71 124.46, -0.7 114.08 C0.31 103.7, 5.71 92.44, 12.98 82.77 C20.26 73.1, 30.27 64.82, 42.95 56.05 C55.63 47.28, 71.81 37.24, 89.07 30.16 C106.32 23.07, 136.54 15.71, 146.48 13.54 C156.42 11.38, 146.63 15.54, 148.72 17.16" stroke="#1e1e1e" stroke-width="1" fill="none"></path></g><g transform="translate(83 244) rotate(0 27.549999237060547 12.5)"><text x="0" y="0" font-family="Virgil, Segoe UI Emoji" font-size="20px" fill="#1971c2" text-anchor="start" style="white-space: pre;" direction="ltr" dominant-baseline="text-before-edge">Pollen</text></g><g stroke-linecap="round" transform="translate(211 238) rotate(0 114 95.5)"><path d="M10.49 88.62 C10.49 88.62, 10.49 88.62, 10.49 88.62 M10.49 88.62 C10.49 88.62, 10.49 88.62, 10.49 88.62 M9.57 95.77 C12.92 91.58, 17.38 88.53, 21.38 82.19 M9.57 95.77 C14.53 90.8, 18.91 85.78, 21.38 82.19 M9.97 101.42 C15.88 90.93, 25.75 82.98, 40.15 66.7 M9.97 101.42 C22.23 89.3, 33.48 76, 40.15 66.7 M12.33 104.8 C23.78 91.14, 40.99 74.1, 58.26 51.97 M12.33 104.8 C24.83 91.85, 37.17 77.33, 58.26 51.97 M15.35 107.42 C39.12 80.99, 60.46 55.62, 77.02 36.48 M15.35 107.42 C30.79 89.98, 46.02 72.74, 77.02 36.48 M17.71 110.8 C43.94 79.7, 70.67 50.87, 106.28 8.91 M17.71 110.8 C39.89 83.04, 63.82 57.97, 106.28 8.91 M20.73 113.42 C54.56 72, 87.82 36.89, 113.89 6.25 M20.73 113.42 C47.65 83.04, 73.17 54.61, 113.89 6.25 M23.75 116.05 C45.2 89.14, 69.63 65.99, 117.57 8.12 M23.75 116.05 C59.37 76.1, 95.09 35.2, 117.57 8.12 M26.77 118.67 C50 92.11, 74.15 62.38, 122.55 8.48 M26.77 118.67 C48.55 93.87, 71.17 67.96, 122.55 8.48 M29.79 121.3 C51.56 96.21, 72.58 70.51, 125.57 11.11 M29.79 121.3 C63.3 83.9, 95.64 45.88, 125.57 11.11 M33.46 123.17 C68.62 83.26, 101.1 45.47, 128.59 13.73 M33.46 123.17 C53.2 98.1, 73.38 76.17, 128.59 13.73 M36.48 125.79 C68.05 90.03, 96.94 55.54, 132.27 15.6 M36.48 125.79 C66.58 91.35, 96.22 57.01, 132.27 15.6 M39.5 128.41 C71.24 92.38, 100.35 58.8, 135.29 18.23 M39.5 128.41 C62.03 101.53, 85.5 73.6, 135.29 18.23 M42.52 131.04 C72.25 96.3, 102.56 59.28, 138.3 20.85 M42.52 131.04 C78.46 90.16, 114.48 48.76, 138.3 20.85 M45.54 133.66 C67.75 109.58, 88.39 84.31, 141.98 22.72 M45.54 133.66 C74.2 99.47, 104.92 65.77, 141.98 22.72 M48.56 136.29 C67.39 112.39, 88.62 87.11, 145 25.34 M48.56 136.29 C68.25 113.13, 88.29 87.67, 145 25.34 M51.58 138.91 C83.17 101.52, 118.62 64.5, 148.02 27.97 M51.58 138.91 C76.69 111.11, 101.42 81.31, 148.02 27.97 M54.6 141.53 C82.16 108.26, 110.97 77.57, 151.04 30.59 M54.6 141.53 C82.9 109.6, 110.86 78.77, 151.04 30.59 M57.61 144.16 C88.05 107.75, 124.15 68.52, 154.05 33.22 M57.61 144.16 C89.83 106.88, 121.3 71.35, 154.05 33.22 M61.29 146.03 C80.54 120.95, 102.2 99.45, 157.07 35.84 M61.29 146.03 C83.64 120.88, 108.19 93.6, 157.07 35.84 M64.31 148.65 C90.48 117.84, 119.81 86.36, 160.09 38.47 M64.31 148.65 C85.92 124.32, 108.55 98.08, 160.09 38.47 M67.33 151.28 C102.3 110.56, 137.19 71.95, 163.11 41.09 M67.33 151.28 C94 121.37, 120.09 91.67, 163.11 41.09 M70.35 153.9 C93.5 125.38, 119.66 98.95, 166.13 43.71 M70.35 153.9 C94.41 126.53, 118.86 98.28, 166.13 43.71 M73.36 156.53 C106.61 121.44, 135.8 84.6, 169.15 46.34 M73.36 156.53 C110.11 114.38, 146.24 70.7, 169.15 46.34 M76.38 159.15 C101.99 127.37, 132.97 94.14, 172.17 48.96 M76.38 159.15 C109.21 120.06, 145.19 80.12, 172.17 48.96 M79.4 161.77 C116.11 122.14, 151.47 78.95, 175.19 51.59 M79.4 161.77 C110.68 125.48, 143.39 90.07, 175.19 51.59 M82.42 164.4 C110.41 133.96, 139.31 98.33, 178.21 54.21 M82.42 164.4 C111.03 132.14, 138.62 100.3, 178.21 54.21 M85.44 167.02 C120.8 122.82, 157.54 83.37, 181.22 56.83 M85.44 167.02 C110.95 138.8, 136.2 110.25, 181.22 56.83 M89.11 168.89 C116.55 139.2, 142.59 106.7, 184.24 59.46 M89.11 168.89 C114.83 140.35, 140.47 113.08, 184.24 59.46 M92.13 171.52 C123.45 136.65, 152.3 99.65, 187.26 62.08 M92.13 171.52 C118.83 139.51, 145.24 108.51, 187.26 62.08 M95.15 174.14 C126.3 137.61, 159 101.96, 190.28 64.71 M95.15 174.14 C119.63 144.32, 145.7 116.3, 190.28 64.71 M98.17 176.76 C135.63 138.17, 169.49 97.41, 193.3 67.33 M98.17 176.76 C128.25 142.81, 157.58 110.18, 193.3 67.33 M101.19 179.39 C129.89 146.6, 155.53 114.93, 196.32 69.96 M101.19 179.39 C137.67 138.84, 173.77 94.68, 196.32 69.96 M104.86 181.26 C139.37 141.51, 174.6 97.02, 199.34 72.58 M104.86 181.26 C143.69 139.69, 178.61 96.86, 199.34 72.58 M107.88 183.88 C129.72 158.41, 154.03 129.01, 202.36 75.2 M107.88 183.88 C133.38 154.82, 156.58 126.86, 202.36 75.2 M112.21 185 C133.34 159.17, 157.4 133.46, 205.37 77.83 M112.21 185 C148.61 144.44, 185.13 101.42, 205.37 77.83 M118.51 183.85 C138.44 159.4, 160.19 136.95, 208.39 80.45 M118.51 183.85 C135.85 163.62, 155.12 141.87, 208.39 80.45 M122.19 185.72 C149.3 152.67, 177.69 118.89, 211.41 83.08 M122.19 185.72 C151.01 153.33, 178.72 118.77, 211.41 83.08 M135.7 176.27 C157.97 152.36, 179.43 124.91, 214.43 85.7 M135.7 176.27 C161.35 146.39, 186.72 116.91, 214.43 85.7 M155.78 159.27 C179.31 132.73, 198.99 108.83, 217.45 88.33 M155.78 159.27 C180.13 130.11, 204.82 102.78, 217.45 88.33 M175.2 143.02 C186.67 126.58, 199.08 111.99, 219.81 91.7 M175.2 143.02 C184.87 132.9, 193.4 122.5, 219.81 91.7 M195.28 126.03 C201.37 120, 208.95 113.83, 220.86 96.59 M195.28 126.03 C205.5 114.68, 215.11 103.57, 220.86 96.59" stroke="#a5d8ff" stroke-width="0.5" fill="none"></path><path d="M143.75 24 M143.75 24 C158.63 37.11, 175.27 50.27, 199.25 72 M143.75 24 C165.68 43.01, 187.05 62.25, 199.25 72 M199.25 72 C226.31 96.74, 228.72 94.47, 199.25 120 M199.25 72 C228.22 98.01, 229.35 94.65, 199.25 120 M199.25 120 C186.88 129.29, 175.28 140.72, 143.75 167 M199.25 120 C181.67 134.73, 163.59 150.18, 143.75 167 M143.75 167 C114.69 190.03, 116.42 191.62, 86.25 167 M143.75 167 C115.88 192.98, 113.92 189.44, 86.25 167 M86.25 167 C67.3 151.88, 48.38 136.54, 28.75 120 M86.25 167 C69.74 152.64, 53.48 140.96, 28.75 120 M28.75 120 C0.6 95.56, 0.3 95.07, 28.75 72 M28.75 120 C-0.69 98.09, 1.87 95.54, 28.75 72 M28.75 72 C48.96 56.51, 64.13 41.93, 86.25 24 M28.75 72 C42.31 59.66, 57.84 48.87, 86.25 24 M86.25 24 C113.21 1.38, 114.69 -0.64, 143.75 24 M86.25 24 C113.54 2.18, 116.2 1.97, 143.75 24" stroke="#1e1e1e" stroke-width="1" fill="none"></path></g><g transform="translate(291.0374984741211 308.75) rotate(0 33.962501525878906 25)"><text x="33.962501525878906" y="0" font-family="Virgil, Segoe UI Emoji" font-size="20px" fill="#1e1e1e" text-anchor="middle" style="white-space: pre;" direction="ltr" dominant-baseline="text-before-edge">DATA </text><text x="33.962501525878906" y="25" font-family="Virgil, Segoe UI Emoji" font-size="20px" fill="#1e1e1e" text-anchor="middle" style="white-space: pre;" direction="ltr" dominant-baseline="text-before-edge">API</text></g><g transform="translate(264 316) rotate(0 8.5 16)" stroke="none"><path fill="#1e1e1e" d="M 1.92,-1.44 Q 1.92,-1.44 2.77,-0.30 3.62,0.82 4.84,1.69 6.06,2.56 7.35,3.66 8.64,4.75 10.13,5.72 11.62,6.70 12.72,7.42 13.82,8.14 14.77,8.64 15.73,9.15 16.70,10.13 17.67,11.12 19.29,12.13 20.90,13.14 22.47,14.07 24.05,15.00 24.46,16.86 24.87,18.72 24.58,19.99 24.29,21.27 23.08,22.49 21.88,23.71 19.94,24.66 18.01,25.60 15.61,26.55 13.22,27.51 11.33,28.19 9.44,28.88 7.62,29.25 5.80,29.62 4.13,29.78 2.47,29.94 1.31,30.28 0.14,30.61 -0.61,31.36 -1.38,32.11 -2.08,32.79 -2.78,33.47 -3.11,33.74 -3.44,34.01 -3.83,34.17 -4.23,34.32 -4.66,34.33 -5.09,34.35 -5.50,34.23 -5.91,34.11 -6.26,33.86 -6.61,33.62 -6.86,33.27 -7.11,32.93 -7.24,32.52 -7.38,32.12 -7.37,31.69 -7.36,31.26 -7.22,30.86 -7.08,30.46 -6.81,30.12 -6.55,29.78 -6.19,29.55 -5.83,29.31 -5.42,29.21 -5.01,29.10 -4.58,29.13 -4.15,29.16 -3.76,29.32 -3.36,29.49 -3.04,29.77 -2.72,30.05 -2.51,30.42 -2.29,30.79 -2.21,31.21 -2.12,31.63 -2.17,32.05 -2.23,32.48 -2.41,32.86 -2.60,33.25 -2.90,33.55 -3.20,33.86 -3.58,34.05 -3.96,34.25 -4.38,34.31 -4.80,34.37 -5.22,34.29 -5.64,34.22 -6.02,34.01 -6.39,33.81 -6.68,33.49 -6.97,33.18 -7.14,32.79 -7.32,32.40 -7.36,31.97 -7.40,31.54 -7.30,31.13 -7.20,30.71 -6.97,30.35 -6.75,29.99 -6.75,29.99 -6.75,29.99 -4.43,28.22 -2.10,26.45 0.00,26.06 2.11,25.66 3.56,25.56 5.00,25.46 6.44,25.21 7.87,24.95 9.57,24.18 11.28,23.40 13.30,22.28 15.31,21.16 17.10,19.53 18.90,17.91 17.78,16.83 16.67,15.75 14.99,14.42 13.30,13.09 12.27,12.41 11.23,11.73 10.33,11.02 9.44,10.30 7.59,9.25 5.74,8.21 4.59,7.24 3.45,6.28 1.63,5.02 -0.17,3.77 -1.05,2.60 -1.92,1.44 -2.06,1.19 -2.21,0.93 -2.29,0.66 -2.37,0.38 -2.38,0.09 -2.39,-0.19 -2.33,-0.47 -2.27,-0.76 -2.15,-1.02 -2.02,-1.28 -1.84,-1.50 -1.66,-1.73 -1.43,-1.90 -1.19,-2.08 -0.93,-2.19 -0.66,-2.30 -0.38,-2.35 -0.09,-2.39 0.19,-2.37 0.48,-2.35 0.75,-2.26 1.03,-2.16 1.27,-2.01 1.52,-1.85 1.72,-1.64 1.92,-1.44 1.92,-1.44 L 1.92,-1.44 Z"></path></g><g transform="translate(503 86) rotate(0 8.5 14.5)" stroke="none"><path fill="#1e1e1e" d="M 2.30,0.76 Q 2.30,0.76 1.30,3.30 0.30,5.85 -0.43,7.78 -1.18,9.71 -1.38,11.01 -1.57,12.31 -1.96,13.64 -2.34,14.97 -2.41,16.16 -2.48,17.36 -2.42,18.73 -2.35,20.10 -2.28,21.16 -2.21,22.23 -2.12,23.74 -2.03,25.25 0.27,25.39 2.57,25.53 3.77,25.66 4.96,25.80 6.40,25.91 7.85,26.02 9.33,26.10 10.81,26.17 12.58,26.27 14.36,26.38 15.69,26.38 17.03,26.39 19.33,26.36 21.64,26.34 22.07,26.41 22.49,26.48 22.87,26.68 23.25,26.88 23.54,27.19 23.84,27.51 24.02,27.90 24.20,28.29 24.24,28.71 24.29,29.14 24.20,29.56 24.11,29.98 23.88,30.35 23.66,30.71 23.34,30.99 23.01,31.27 22.61,31.43 22.21,31.59 21.78,31.61 21.35,31.63 20.94,31.52 20.52,31.40 20.17,31.16 19.81,30.92 19.55,30.58 19.29,30.24 19.16,29.83 19.02,29.42 19.02,28.99 19.02,28.56 19.16,28.16 19.30,27.75 19.56,27.41 19.82,27.07 20.17,26.83 20.53,26.58 20.94,26.47 21.36,26.36 21.78,26.38 22.21,26.40 22.61,26.56 23.01,26.72 23.34,27.00 23.67,27.28 23.89,27.65 24.11,28.01 24.20,28.43 24.29,28.85 24.24,29.28 24.20,29.71 24.02,30.10 23.84,30.49 23.54,30.80 23.25,31.11 22.87,31.31 22.49,31.51 22.06,31.58 21.64,31.65 21.64,31.65 21.64,31.65 19.33,31.62 17.01,31.59 15.67,31.59 14.33,31.58 12.53,31.67 10.72,31.76 9.19,31.78 7.65,31.81 6.06,31.81 4.47,31.82 2.07,31.48 -0.31,31.15 -1.87,31.06 -3.43,30.97 -4.75,30.61 -6.08,30.25 -6.82,29.25 -7.55,28.25 -7.75,26.75 -7.96,25.25 -7.86,23.73 -7.77,22.20 -7.68,21.10 -7.60,19.99 -7.44,18.39 -7.29,16.79 -6.87,15.17 -6.45,13.55 -6.02,12.53 -5.59,11.51 -5.24,10.00 -4.88,8.48 -4.31,6.49 -3.75,4.49 -3.02,1.86 -2.30,-0.76 -2.17,-1.03 -2.05,-1.29 -1.86,-1.52 -1.68,-1.75 -1.44,-1.92 -1.21,-2.10 -0.94,-2.21 -0.67,-2.33 -0.38,-2.37 -0.09,-2.42 0.19,-2.40 0.48,-2.37 0.76,-2.28 1.03,-2.19 1.28,-2.03 1.53,-1.88 1.73,-1.67 1.94,-1.45 2.08,-1.20 2.23,-0.95 2.31,-0.67 2.39,-0.39 2.40,-0.09 2.41,0.19 2.36,0.48 2.30,0.76 2.30,0.76 L 2.30,0.76 Z"></path></g><g transform="translate(228 120) rotate(0 -88.5 109.5)" stroke="none"><path fill="#1e1e1e" d="M -0.14,1.55 Q -0.14,1.55 -6.46,0.94 -12.78,0.33 -18.88,0.07 -24.98,-0.19 -30.45,-0.31 -35.92,-0.43 -41.69,-0.49 -47.46,-0.55 -54.23,-0.58 -60.99,-0.60 -68.44,-0.33 -75.89,-0.06 -83.34,0.62 -90.80,1.30 -99.64,3.31 -108.49,5.31 -117.04,9.28 -125.60,13.25 -133.49,18.92 -141.39,24.59 -148.74,31.85 -156.09,39.11 -163.52,47.93 -170.95,56.74 -177.83,65.94 -184.72,75.14 -191.40,83.95 -198.08,92.76 -203.44,103.31 -208.80,113.85 -210.76,122.80 -212.73,131.75 -211.00,140.84 -209.26,149.94 -204.56,159.49 -199.85,169.04 -193.88,176.80 -187.90,184.56 -182.54,189.25 -177.19,193.93 -169.28,197.59 -161.36,201.25 -152.28,203.96 -143.19,206.68 -131.33,208.40 -119.47,210.12 -106.66,211.43 -93.84,212.74 -80.59,214.74 -67.34,216.74 -54.88,217.59 -42.41,218.43 -32.24,218.50 -22.08,218.57 -14.05,218.03 -6.02,217.49 1.45,217.26 8.93,217.02 13.83,216.93 18.73,216.83 21.68,216.79 24.63,216.74 26.45,216.66 28.28,216.58 29.34,216.46 30.40,216.33 32.07,215.52 33.74,214.70 34.94,214.40 36.13,214.09 38.29,213.92 40.45,213.74 40.81,213.78 41.18,213.83 41.51,213.99 41.84,214.14 42.11,214.40 42.37,214.66 42.54,214.98 42.71,215.31 42.77,215.67 42.82,216.04 42.76,216.40 42.70,216.76 42.52,217.09 42.34,217.41 42.07,217.66 41.81,217.91 41.47,218.06 41.13,218.21 40.77,218.25 40.40,218.29 40.04,218.20 39.68,218.12 39.37,217.93 39.06,217.73 38.82,217.45 38.58,217.17 38.45,216.83 38.32,216.48 38.30,216.11 38.29,215.75 38.39,215.39 38.49,215.04 38.70,214.74 38.91,214.43 39.21,214.21 39.50,213.99 39.85,213.88 40.20,213.77 40.57,213.77 40.94,213.77 41.29,213.89 41.63,214.01 41.92,214.24 42.21,214.47 42.42,214.77 42.62,215.08 42.72,215.44 42.81,215.79 42.79,216.16 42.76,216.53 42.62,216.87 42.48,217.21 42.24,217.49 42.00,217.76 41.68,217.95 41.37,218.14 41.01,218.21 40.65,218.29 40.65,218.29 40.65,218.29 37.95,218.40 35.26,218.50 34.13,218.87 32.99,219.23 31.72,219.46 30.45,219.68 29.38,219.57 28.31,219.46 26.49,219.42 24.66,219.37 21.72,219.41 18.79,219.45 13.90,219.55 9.01,219.65 1.58,219.88 -5.84,220.11 -13.97,220.65 -22.09,221.20 -32.34,221.13 -42.59,221.05 -55.16,220.20 -67.73,219.34 -80.92,217.35 -94.11,215.36 -106.98,214.04 -119.85,212.72 -131.89,210.96 -143.94,209.19 -153.20,206.41 -162.47,203.63 -170.68,199.78 -178.90,195.92 -184.44,191.04 -189.97,186.17 -196.09,178.19 -202.21,170.21 -207.02,160.32 -211.84,150.44 -213.57,140.85 -215.30,131.27 -213.22,121.97 -211.15,112.67 -205.67,101.93 -200.18,91.18 -193.51,82.37 -186.83,73.56 -179.90,64.30 -172.96,55.04 -165.45,46.14 -157.94,37.23 -150.44,29.84 -142.94,22.44 -134.83,16.65 -126.72,10.85 -117.90,6.78 -109.09,2.71 -100.07,0.67 -91.05,-1.35 -83.52,-2.06 -75.99,-2.76 -68.49,-3.04 -60.98,-3.33 -54.21,-3.32 -47.44,-3.31 -41.65,-3.28 -35.86,-3.25 -30.36,-3.16 -24.86,-3.08 -18.69,-2.86 -12.51,-2.63 -6.18,-2.09 0.14,-1.55 0.32,-1.51 0.50,-1.47 0.67,-1.39 0.84,-1.31 0.99,-1.19 1.13,-1.07 1.24,-0.91 1.36,-0.76 1.43,-0.59 1.50,-0.41 1.53,-0.23 1.56,-0.04 1.54,0.14 1.52,0.32 1.46,0.50 1.40,0.68 1.30,0.84 1.19,1.00 1.06,1.12 0.92,1.25 0.76,1.35 0.59,1.44 0.41,1.49 0.23,1.54 0.04,1.55 -0.14,1.55 -0.14,1.55 L -0.14,1.55 Z"></path></g><g transform="translate(524 99) rotate(0 -7.5 121)" stroke="none"><path fill="#1e1e1e" d="M -7.70,-1.21 Q -7.70,-1.21 -6.33,-1.93 -4.96,-2.65 -0.50,-2.93 3.95,-3.22 9.15,-2.65 14.35,-2.08 20.46,-0.52 26.57,1.03 33.60,3.65 40.62,6.27 49.72,11.28 58.82,16.28 72.62,26.16 86.42,36.03 97.30,47.37 108.18,58.70 117.24,71.93 126.29,85.16 133.20,100.82 140.10,116.49 143.05,131.27 146.00,146.05 146.42,159.47 146.84,172.88 143.95,182.60 141.07,192.32 136.17,199.45 131.26,206.59 119.11,212.94 106.95,219.28 95.22,224.18 83.49,229.07 67.97,232.78 52.45,236.49 32.06,239.02 11.68,241.56 -12.96,242.64 -37.61,243.72 -60.77,242.89 -83.93,242.06 -101.80,239.78 -119.66,237.49 -131.67,235.23 -143.67,232.97 -149.57,232.01 -155.46,231.05 -157.98,230.65 -160.49,230.24 -160.69,230.17 -160.89,230.10 -161.06,229.98 -161.23,229.85 -161.35,229.67 -161.47,229.50 -161.53,229.29 -161.59,229.09 -161.57,228.87 -161.56,228.66 -161.49,228.46 -161.41,228.27 -161.27,228.11 -161.13,227.94 -160.95,227.83 -160.77,227.72 -160.56,227.68 -160.35,227.63 -160.14,227.65 -159.93,227.68 -159.74,227.77 -159.55,227.85 -159.39,228.00 -159.24,228.15 -159.14,228.33 -159.04,228.52 -159.00,228.73 -158.97,228.94 -159.00,229.15 -159.03,229.36 -159.13,229.55 -159.23,229.74 -159.39,229.88 -159.54,230.03 -159.73,230.12 -159.93,230.21 -160.14,230.23 -160.35,230.25 -160.56,230.21 -160.76,230.16 -160.95,230.05 -161.13,229.95 -161.27,229.78 -161.40,229.62 -161.48,229.42 -161.56,229.23 -161.57,229.01 -161.59,228.80 -161.53,228.60 -161.47,228.39 -161.35,228.22 -161.24,228.04 -161.07,227.91 -160.90,227.78 -160.70,227.71 -160.49,227.65 -160.28,227.65 -160.07,227.65 -160.07,227.65 -160.07,227.65 -157.56,228.05 -155.04,228.46 -149.12,229.42 -143.19,230.38 -131.26,232.63 -119.32,234.88 -101.58,237.16 -83.84,239.43 -60.78,240.26 -37.72,241.09 -13.18,240.02 11.35,238.95 31.60,236.44 51.84,233.92 67.16,230.28 82.48,226.64 94.11,221.79 105.74,216.94 117.47,210.97 129.20,204.99 133.88,198.26 138.55,191.52 141.37,182.22 144.19,172.92 143.79,159.74 143.39,146.57 140.52,132.06 137.65,117.55 130.85,102.11 124.06,86.68 115.14,73.63 106.21,60.58 95.51,49.43 84.81,38.27 71.14,28.51 57.47,18.74 48.54,13.85 39.62,8.96 32.73,6.44 25.85,3.91 19.94,2.45 14.03,0.99 9.09,0.51 4.15,0.03 0.29,0.29 -3.56,0.55 -4.95,1.12 -6.34,1.69 -6.52,1.75 -6.70,1.81 -6.90,1.82 -7.09,1.83 -7.28,1.80 -7.47,1.77 -7.65,1.69 -7.83,1.62 -7.98,1.50 -8.14,1.38 -8.26,1.23 -8.38,1.08 -8.46,0.91 -8.54,0.73 -8.58,0.54 -8.62,0.35 -8.61,0.16 -8.60,-0.03 -8.54,-0.21 -8.49,-0.40 -8.39,-0.56 -8.29,-0.73 -8.16,-0.87 -8.02,-1.01 -7.86,-1.11 -7.70,-1.21 -7.70,-1.21 L -7.70,-1.21 Z"></path></g></svg>