<svg version="1.1" xmlns="http://www.w3.org/2000/svg" viewBox="0 0 1039.5 617.1666564941406" width="1039.5" height="617.1666564941406">
  <!-- svg-source:excalidraw -->
  
  <defs>
    <style class="style-fonts">
      @font-face {
        font-family: "Virgil";
        src: url("https://excalidraw.com/Virgil.woff2");
      }
      @font-face {
        font-family: "Cascadia";
        src: url("https://excalidraw.com/Cascadia.woff2");
      }
    </style>
    
  </defs>
  <g transform="translate(542 582.1666564941406) rotate(0 8.225000381469727 12.5)"><text x="0" y="0" font-family="Virgil, Segoe UI Emoji" font-size="20px" fill="#1e1e1e" text-anchor="start" style="white-space: pre;" direction="ltr" dominant-baseline="text-before-edge">...</text></g><g stroke-linecap="round" transform="translate(10 98.16665649414062) rotate(0 180 112)"><path d="M19.41 61.92 C19.41 61.92, 19.41 61.92, 19.41 61.92 M19.41 61.92 C19.41 61.92, 19.41 61.92, 19.41 61.92 M12.09 78.03 C21.19 64.04, 31.47 51.67, 44.56 40.5 M10.38 77.98 C17.78 69.32, 25.57 59.23, 43.55 40.22 M2.39 92.39 C20.53 73.14, 38.69 52.59, 52.98 36.04 M2.52 92.07 C17.72 75.54, 31.46 61.35, 54.51 34.78 M4.79 97.57 C21.74 78.37, 37.31 58.45, 62.98 30.97 M3.42 98.12 C24.53 73.86, 46.95 48.18, 62.86 30.44 M4.35 102.12 C19.75 85.2, 33.87 67.72, 69.7 27.17 M3.28 103.63 C18.04 86.92, 34.04 69.48, 70.6 26.12 M2.69 111.02 C23.19 86.8, 45.87 62.26, 81.5 22.81 M4.8 110.54 C30.29 77.28, 59.19 46.83, 80.6 22.82 M5.14 114.72 C26.71 88.9, 48.59 60.02, 87.68 19.36 M5.24 114.79 C30.91 86, 55.26 57.04, 90.25 18.16 M6.44 122.5 C41.15 83.08, 77.07 39.46, 97.45 13.69 M4.13 121.25 C25.4 95.45, 46.88 70.81, 97.42 14.99 M5.75 126.5 C35.22 93.24, 68.25 57.6, 105.65 15.34 M5.24 128.24 C26.63 102.07, 47.3 76.15, 104.16 14.27 M7.01 132.06 C35.75 97.33, 66.16 62.95, 108.39 13.35 M4.9 133.43 C37.44 97.94, 67.46 60.99, 109.24 12.33 M8.6 135.27 C50.25 88.57, 93.84 39.84, 115.43 11.57 M6.62 135.88 C51.32 88.01, 93.26 38.48, 116.6 11.8 M9.12 140.79 C48.92 93.88, 87.37 53.58, 124.55 8.99 M8.88 141.46 C43.64 102.7, 77.48 62.7, 122.65 8.39 M10.31 144.91 C60.22 91.4, 106.38 36.9, 128.59 8.04 M10.95 144.38 C56.86 93.01, 101.79 42.2, 129.22 8.81 M11.41 148.59 C57.73 98.38, 101.24 48.7, 135.06 5.39 M13.3 147.78 C51.73 103.88, 91.11 59.92, 136.23 6.02 M14.93 151.06 C53.77 108.7, 87.78 65.42, 141.23 4.29 M14.29 151.88 C42.49 118.14, 70.71 85.17, 142.69 5.15 M16.97 154.05 C54.62 112.37, 90.39 74.14, 152.25 2.8 M18.29 155.53 C49.39 121.06, 79.36 86.24, 150.06 2.28 M17.57 158.35 C60.67 112.63, 98.38 68.04, 155.35 1.24 M19.53 159.99 C67.15 104.85, 115.24 49.78, 156.93 1.2 M22.31 164.71 C70.9 108.72, 117.99 52.43, 162.71 0.83 M21.57 164.68 C58.69 120.32, 96.75 78.3, 162.51 1.04 M22.67 167.85 C56.26 127.55, 88.24 90.73, 166.41 1.96 M22.95 167.38 C58.14 125.53, 94.17 84.56, 166.69 1.75 M25 169.05 C70.58 115.96, 116.27 64.78, 171.8 1.38 M26.91 169.29 C64.94 123.97, 103.51 78.95, 172.16 1.6 M29.74 171.18 C63.4 131.5, 99 94.84, 176.8 2.08 M30.43 172.27 C84.84 109.02, 141.14 43.89, 177.88 1.37 M31.79 174.41 C69.33 135.18, 103.18 92.31, 183.86 3.12 M33 174.31 C92.53 106.3, 150.78 38.54, 183.11 1.69 M37.17 175.44 C71.58 136.86, 109.01 95.89, 189.98 2.7 M35.35 177.61 C77.44 128.51, 119.16 80.94, 189.47 0.41 M38.01 178.35 C74.9 139.13, 109.63 96.58, 195.24 2.15 M39.8 180.32 C72.55 140.15, 108.2 100.02, 193.16 2.18 M43.41 183.05 C84.68 130.36, 128.65 81.31, 199.37 1.29 M41.49 182.52 C81.73 135.87, 122.6 91.61, 200.23 1.61 M43.81 186.48 C103.91 114.62, 163.13 45.78, 203.67 3.11 M44.82 185.15 C88.17 134.76, 132.65 83.42, 204 1.99 M47.58 188.79 C80.44 149.67, 115.03 114.28, 209.56 3.81 M47.28 188.28 C95.48 133.25, 142.39 78.02, 208.79 2.98 M52.37 190.96 C113.37 115.79, 179.33 39.69, 214.45 2.87 M50.82 190.11 C98.54 136.77, 144.96 82.75, 213.19 2.99 M55.58 193.51 C109.45 128.66, 165.81 67.85, 218.45 5.58 M54.76 192.72 C113.8 124.29, 173.17 56.31, 216.73 4.6 M57.05 193.32 C119.17 123.93, 182.7 53.6, 222.09 4.6 M58.51 193.49 C107.57 135.15, 157.4 78.34, 221.73 4.78 M60.69 197.13 C100.89 151.61, 136.52 108.91, 228.33 6.97 M62.43 195.85 C109.21 142.66, 157.4 87.19, 227.1 6.75 M65.41 197.24 C102.95 151.98, 140.36 111.24, 229.94 6.15 M65.23 197.62 C100.87 155.74, 136.19 114.61, 231.19 7.17 M68.19 200.34 C121.94 138.6, 174.17 80.9, 235 8.18 M69.42 199.06 C116.19 145.53, 161.3 93.86, 236.1 7.27 M72.59 201.71 C114.19 154.4, 156.34 106.59, 241.83 7.32 M73.54 201.13 C112.09 157.24, 150.25 114.25, 239.66 8.4 M76.1 203.98 C117.42 156.15, 156.53 111.05, 244.4 8.63 M78.18 201.96 C142.53 126.66, 208.65 49.99, 244.03 9.89 M81.94 203.95 C142.32 136.79, 202.09 65.85, 249.48 10.16 M81.58 204.3 C141.04 135.99, 200.9 67.59, 249.35 11.15 M83.28 204.72 C143.06 138.84, 200.49 71.55, 253.43 12.78 M85.57 205.45 C136.91 147.61, 188.38 86.68, 254.76 11.41 M87.82 209.48 C130.73 161.86, 170.75 114.27, 260.07 10.39 M87.91 208.55 C148.99 136.09, 211.67 65.44, 259.36 11.57 M91.74 211.45 C157.12 133.09, 221.93 58.59, 263.89 13.63 M92.45 209.53 C147.27 144.97, 204.61 80.48, 262.99 13.48 M97.85 210.16 C136.85 162.96, 176.11 118.22, 267.38 14 M96.69 211.49 C132.5 167.21, 168.49 125.37, 268.32 13.39 M99.85 213.85 C135.06 172.81, 167.1 133.94, 272.49 15.49 M100.89 213.18 C163.33 140.04, 226.34 67.55, 270.76 15.52 M102.98 214.49 C143.06 168.87, 183.7 123.88, 273.53 17.64 M103.08 215.52 C139.29 173.79, 175.8 131.49, 274.44 17.18 M108.41 215.1 C150.35 168.69, 192.31 121.19, 278.26 19.57 M108.22 215.87 C173.52 137.84, 240.74 60.73, 278.13 20.44 M113.23 217.03 C173.87 146.39, 233.51 77, 282.74 21.94 M112.16 217.25 C161.01 163.76, 208.93 108.17, 282.85 21.66 M115.32 217.06 C161.36 167.37, 209.32 111.46, 286.08 23.98 M116.9 217.9 C174.97 149.86, 234.42 81.39, 287.41 22.61 M121.24 217.5 C174.07 158.69, 227.74 95.35, 290.82 25.99 M122.44 217.81 C166.93 167.25, 210.48 115.56, 291.12 23.75 M124.66 218.91 C161.87 175.38, 201.29 130.48, 295.39 25.84 M126.81 219.84 C168.96 171.41, 211.36 122.66, 294.28 26.8 M131.61 222.23 C168.27 175.41, 206.27 133.93, 297.59 27.9 M130.41 220.27 C168.42 177.21, 203.72 135.66, 297.64 28 M135.67 220.82 C196.55 149.7, 256.76 79.48, 299.91 30.48 M136.21 220.59 C183.56 163.7, 233.83 106.18, 301.22 30.9 M140.02 223.2 C172.74 183.65, 205.63 145.34, 306.68 30.87 M139.37 222.42 C197.79 155.4, 255.98 88.34, 305.46 30.95 M144.89 222.06 C201.26 155.54, 259.52 88.62, 309.22 33.53 M144.72 222.8 C200.43 156.59, 258.96 90.89, 309.29 34.53 M150.27 223.55 C210.79 152.11, 271.04 80.4, 310.88 36.19 M149.88 223.68 C191.64 174.04, 235.54 123.34, 311.7 35.82 M154.89 224.73 C209.08 161.31, 260.76 98.91, 314.17 39.47 M154.86 222.73 C194.47 177.38, 233.64 130.75, 314.99 39.01 M161.02 224.33 C198.14 175.78, 239.06 130.02, 318.53 41.52 M160.21 222.24 C208.65 165.76, 257.65 109.43, 318.5 42.01 M164.86 224.77 C209.76 173.76, 251.99 123.72, 321.64 45.72 M164.94 223.32 C214.6 166.77, 262.3 112.54, 321.53 43.63 M169.94 224.46 C228.49 159.87, 282.9 94.31, 322.43 46.8 M171.47 222.64 C207.66 180.46, 244.09 138.67, 323.94 46.85 M175.57 222.33 C211.79 181.35, 246.02 140.17, 326.01 48.64 M176.58 222.55 C207.17 187.97, 238.54 150.86, 327.54 49.47 M180.11 223.2 C214.36 182.73, 248.86 144.08, 329.91 53.71 M181.4 222.5 C231.92 163.42, 283.42 105.65, 329.88 52.39 M186.3 222.01 C228.12 176.1, 266.45 129.34, 332.11 53.86 M187.41 222.43 C235.12 170.37, 281.21 117.2, 332.44 55.26 M191.04 223.18 C246.36 157.45, 302.52 95.96, 334.36 57.09 M193.02 222.92 C239.4 169.99, 285.44 118.31, 336.11 58 M197.34 224.01 C249.7 165.08, 301.3 103.18, 340.19 61.3 M197.72 222.82 C250.19 164.04, 301.02 104.74, 339.13 59.87 M204.37 221.03 C246.56 170.49, 292.31 115.12, 340.01 64.62 M202.48 223.52 C232.07 188.71, 260.55 153.48, 342.2 63.51 M208.77 220.9 C241.61 181.7, 275.79 144.7, 341.85 68.67 M208.59 222.75 C256.21 166.37, 303.28 112.23, 342.51 67.23 M214.45 223.84 C242.67 189.23, 273.92 152.46, 343.75 70.09 M213.14 223.93 C249.15 182.73, 285.57 139.61, 345.53 71.14 M219.55 223.8 C247.33 188.18, 276.58 157.98, 345.13 73.26 M220.07 222.68 C254.54 183.05, 288.63 143.88, 346.6 75.3 M225.75 220.15 C273.49 168.18, 319.19 114.14, 349.23 77.25 M225.89 220.5 C259.38 179.43, 295.86 138.31, 349.42 78.92 M232.39 220.91 C275.34 171.11, 316.72 124.17, 350.23 81.69 M233.22 219.73 C274.15 172, 317.1 123.1, 351.05 83.59 M239.23 217.35 C276.55 170.36, 315.99 126.53, 354.94 84.68 M238.24 217.92 C267.91 184.95, 294.45 152.92, 353.73 86.98 M244.4 217.59 C286.83 167.93, 328.28 123.68, 355.09 89.99 M245.41 215.96 C273.2 183.58, 301.1 154.12, 355.22 89.71 M252.08 214.22 C274.8 189.38, 299.34 161.84, 356.24 92.41 M251.16 215.21 C281.05 181.82, 310.86 149.86, 356.79 93.21 M260.79 214.33 C288.09 181.72, 317.13 149.39, 356.95 98.57 M259.15 214.06 C283.59 187.05, 308.4 158.44, 358.25 100.05 M263.83 210.82 C303.1 173.44, 337.04 131.27, 356.91 104.42 M264.64 212.81 C297.8 177.13, 328.59 140.26, 359.16 104.02 M272.17 209.44 C303.05 174.64, 335.24 136.65, 359.51 112.88 M274.41 207.2 C291.2 187.23, 310.04 167.3, 357.28 111.23 M281.69 202.18 C307.49 173.61, 330.59 147.18, 360.06 115.87 M283.91 203.36 C304.97 178.38, 326.43 152.84, 357.81 116.74 M293.34 200.74 C308.02 180.79, 324.95 159.06, 359.54 124.13 M292.4 199.81 C312.05 175.33, 333.38 152.21, 359.09 121.84 M300.21 196.92 C313.57 179.91, 326.49 164.69, 358.97 127.51 M300.04 195.32 C315.32 179.66, 329.16 163.11, 359.91 128.96 M311.91 189.12 C326.38 173.36, 341.99 154.99, 353.13 141.37 M311.19 190.05 C320.74 178.54, 330.42 165.62, 353.28 141.52" stroke="#a5d8ff" stroke-width="0.5" fill="none"></path><path d="M206.09 0.52 C224.02 0.29, 242.93 5.63, 259.61 10.84 C276.28 16.06, 292.94 23.66, 306.16 31.8 C319.38 39.93, 330.44 49.45, 338.93 59.63 C347.42 69.81, 353.89 81.63, 357.11 92.88 C360.32 104.12, 360.85 115.79, 358.24 127.08 C355.64 138.36, 349.59 150.21, 341.48 160.58 C333.36 170.96, 322.51 180.99, 309.55 189.35 C296.58 197.7, 280.05 205.24, 263.68 210.72 C247.3 216.19, 229.47 220.13, 211.3 222.18 C193.13 224.23, 173.16 224.57, 154.66 223.04 C136.17 221.5, 117.15 218.22, 100.32 212.97 C83.48 207.71, 66.97 199.6, 53.65 191.52 C40.32 183.43, 28.79 174.54, 20.37 164.46 C11.95 154.39, 6.32 142.43, 3.11 131.08 C-0.09 119.73, -1.54 107.85, 1.15 96.36 C3.83 84.87, 10.81 72.65, 19.22 62.13 C27.63 51.61, 38.93 41.49, 51.6 33.24 C64.27 24.99, 78.82 17.91, 95.25 12.64 C111.68 7.38, 130.55 3.42, 150.18 1.64 C169.81 -0.13, 201.32 1.3, 213.04 1.99 C224.77 2.67, 221.13 3.79, 220.54 5.76 M168.74 -0.81 C186.23 -3.52, 206.14 0.77, 223.82 3.55 C241.51 6.33, 259.17 9.83, 274.85 15.88 C290.53 21.92, 305.8 30.55, 317.89 39.83 C329.97 49.12, 340.31 60.8, 347.36 71.57 C354.4 82.34, 358.86 93.32, 360.17 104.48 C361.47 115.64, 360.03 127.09, 355.18 138.55 C350.32 150, 341.18 163.18, 331.03 173.21 C320.89 183.25, 308.15 191.6, 294.3 198.76 C280.46 205.92, 265.3 212.23, 247.97 216.18 C230.64 220.12, 208.95 221.59, 190.3 222.43 C171.65 223.27, 153.57 223.61, 136.05 221.21 C118.53 218.82, 101.02 214.28, 85.18 208.05 C69.33 201.82, 53.2 192.72, 40.97 183.83 C28.74 174.93, 18.73 165.59, 11.8 154.67 C4.86 143.76, 0.22 129.96, -0.64 118.33 C-1.5 106.7, 2.11 96.11, 6.64 84.88 C11.16 73.65, 16.79 60.69, 26.51 50.96 C36.22 41.23, 50.7 33.51, 64.93 26.51 C79.17 19.52, 94.74 13.21, 111.93 8.98 C129.13 4.75, 158.6 2.23, 168.11 1.14 C177.62 0.04, 168.79 0.78, 168.99 2.43" stroke="#1e1e1e" stroke-width="1" fill="none"></path></g><g transform="translate(51 191.16665649414062) rotate(0 27.549999237060547 12.5)"><text x="0" y="0" font-family="Virgil, Segoe UI Emoji" font-size="20px" fill="#1971c2" text-anchor="start" style="white-space: pre;" direction="ltr" dominant-baseline="text-before-edge">Pollen</text></g><g stroke-linecap="round" transform="translate(121 112.16665649414062) rotate(0 114 95.5)"><path d="M10.49 88.62 C10.49 88.62, 10.49 88.62, 10.49 88.62 M10.49 88.62 C10.49 88.62, 10.49 88.62, 10.49 88.62 M9.57 95.77 C12.92 91.58, 17.38 88.53, 21.38 82.19 M9.57 95.77 C14.53 90.8, 18.91 85.78, 21.38 82.19 M9.97 101.42 C15.88 90.93, 25.75 82.98, 40.15 66.7 M9.97 101.42 C22.23 89.3, 33.48 76, 40.15 66.7 M12.33 104.8 C23.78 91.14, 40.99 74.1, 58.26 51.97 M12.33 104.8 C24.83 91.85, 37.17 77.33, 58.26 51.97 M15.35 107.42 C39.12 80.99, 60.46 55.62, 77.02 36.48 M15.35 107.42 C30.79 89.98, 46.02 72.74, 77.02 36.48 M17.71 110.8 C43.94 79.7, 70.67 50.87, 106.28 8.91 M17.71 110.8 C39.89 83.04, 63.82 57.97, 106.28 8.91 M20.73 113.42 C54.56 72, 87.82 36.89, 113.89 6.25 M20.73 113.42 C47.65 83.04, 73.17 54.61, 113.89 6.25 M23.75 116.05 C45.2 89.14, 69.63 65.99, 117.57 8.12 M23.75 116.05 C59.37 76.1, 95.09 35.2, 117.57 8.12 M26.77 118.67 C50 92.11, 74.15 62.38, 122.55 8.48 M26.77 118.67 C48.55 93.87, 71.17 67.96, 122.55 8.48 M29.79 121.3 C51.56 96.21, 72.58 70.51, 125.57 11.11 M29.79 121.3 C63.3 83.9, 95.64 45.88, 125.57 11.11 M33.46 123.17 C68.62 83.26, 101.1 45.47, 128.59 13.73 M33.46 123.17 C53.2 98.1, 73.38 76.17, 128.59 13.73 M36.48 125.79 C68.05 90.03, 96.94 55.54, 132.27 15.6 M36.48 125.79 C66.58 91.35, 96.22 57.01, 132.27 15.6 M39.5 128.41 C71.24 92.38, 100.35 58.8, 135.29 18.23 M39.5 128.41 C62.03 101.53, 85.5 73.6, 135.29 18.23 M42.52 131.04 C72.25 96.3, 102.56 59.28, 138.3 20.85 M42.52 131.04 C78.46 90.16, 114.48 48.76, 138.3 20.85 M45.54 133.66 C67.75 109.58, 88.39 84.31, 141.98 22.72 M45.54 133.66 C74.2 99.47, 104.92 65.77, 141.98 22.72 M48.56 136.29 C67.39 112.39, 88.62 87.11, 145 25.34 M48.56 136.29 C68.25 113.13, 88.29 87.67, 145 25.34 M51.58 138.91 C83.17 101.52, 118.62 64.5, 148.02 27.97 M51.58 138.91 C76.69 111.11, 101.42 81.31, 148.02 27.97 M54.6 141.53 C82.16 108.26, 110.97 77.57, 151.04 30.59 M54.6 141.53 C82.9 109.6, 110.86 78.77, 151.04 30.59 M57.61 144.16 C88.05 107.75, 124.15 68.52, 154.05 33.22 M57.61 144.16 C89.83 106.88, 121.3 71.35, 154.05 33.22 M61.29 146.03 C80.54 120.95, 102.2 99.45, 157.07 35.84 M61.29 146.03 C83.64 120.88, 108.19 93.6, 157.07 35.84 M64.31 148.65 C90.48 117.84, 119.81 86.36, 160.09 38.47 M64.31 148.65 C85.92 124.32, 108.55 98.08, 160.09 38.47 M67.33 151.28 C102.3 110.56, 137.19 71.95, 163.11 41.09 M67.33 151.28 C94 121.37, 120.09 91.67, 163.11 41.09 M70.35 153.9 C93.5 125.38, 119.66 98.95, 166.13 43.71 M70.35 153.9 C94.41 126.53, 118.86 98.28, 166.13 43.71 M73.36 156.53 C106.61 121.44, 135.8 84.6, 169.15 46.34 M73.36 156.53 C110.11 114.38, 146.24 70.7, 169.15 46.34 M76.38 159.15 C101.99 127.37, 132.97 94.14, 172.17 48.96 M76.38 159.15 C109.21 120.06, 145.19 80.12, 172.17 48.96 M79.4 161.77 C116.11 122.14, 151.47 78.95, 175.19 51.59 M79.4 161.77 C110.68 125.48, 143.39 90.07, 175.19 51.59 M82.42 164.4 C110.41 133.96, 139.31 98.33, 178.21 54.21 M82.42 164.4 C111.03 132.14, 138.62 100.3, 178.21 54.21 M85.44 167.02 C120.8 122.82, 157.54 83.37, 181.22 56.83 M85.44 167.02 C110.95 138.8, 136.2 110.25, 181.22 56.83 M89.11 168.89 C116.55 139.2, 142.59 106.7, 184.24 59.46 M89.11 168.89 C114.83 140.35, 140.47 113.08, 184.24 59.46 M92.13 171.52 C123.45 136.65, 152.3 99.65, 187.26 62.08 M92.13 171.52 C118.83 139.51, 145.24 108.51, 187.26 62.08 M95.15 174.14 C126.3 137.61, 159 101.96, 190.28 64.71 M95.15 174.14 C119.63 144.32, 145.7 116.3, 190.28 64.71 M98.17 176.76 C135.63 138.17, 169.49 97.41, 193.3 67.33 M98.17 176.76 C128.25 142.81, 157.58 110.18, 193.3 67.33 M101.19 179.39 C129.89 146.6, 155.53 114.93, 196.32 69.96 M101.19 179.39 C137.67 138.84, 173.77 94.68, 196.32 69.96 M104.86 181.26 C139.37 141.51, 174.6 97.02, 199.34 72.58 M104.86 181.26 C143.69 139.69, 178.61 96.86, 199.34 72.58 M107.88 183.88 C129.72 158.41, 154.03 129.01, 202.36 75.2 M107.88 183.88 C133.38 154.82, 156.58 126.86, 202.36 75.2 M112.21 185 C133.34 159.17, 157.4 133.46, 205.37 77.83 M112.21 185 C148.61 144.44, 185.13 101.42, 205.37 77.83 M118.51 183.85 C138.44 159.4, 160.19 136.95, 208.39 80.45 M118.51 183.85 C135.85 163.62, 155.12 141.87, 208.39 80.45 M122.19 185.72 C149.3 152.67, 177.69 118.89, 211.41 83.08 M122.19 185.72 C151.01 153.33, 178.72 118.77, 211.41 83.08 M135.7 176.27 C157.97 152.36, 179.43 124.91, 214.43 85.7 M135.7 176.27 C161.35 146.39, 186.72 116.91, 214.43 85.7 M155.78 159.27 C179.31 132.73, 198.99 108.83, 217.45 88.33 M155.78 159.27 C180.13 130.11, 204.82 102.78, 217.45 88.33 M175.2 143.02 C186.67 126.58, 199.08 111.99, 219.81 91.7 M175.2 143.02 C184.87 132.9, 193.4 122.5, 219.81 91.7 M195.28 126.03 C201.37 120, 208.95 113.83, 220.86 96.59 M195.28 126.03 C205.5 114.68, 215.11 103.57, 220.86 96.59" stroke="#a5d8ff" stroke-width="0.5" fill="none"></path><path d="M143.75 24 M143.75 24 C158.63 37.11, 175.27 50.27, 199.25 72 M143.75 24 C165.68 43.01, 187.05 62.25, 199.25 72 M199.25 72 C226.31 96.74, 228.72 94.47, 199.25 120 M199.25 72 C228.22 98.01, 229.35 94.65, 199.25 120 M199.25 120 C186.88 129.29, 175.28 140.72, 143.75 167 M199.25 120 C181.67 134.73, 163.59 150.18, 143.75 167 M143.75 167 C114.69 190.03, 116.42 191.62, 86.25 167 M143.75 167 C115.88 192.98, 113.92 189.44, 86.25 167 M86.25 167 C67.3 151.88, 48.38 136.54, 28.75 120 M86.25 167 C69.74 152.64, 53.48 140.96, 28.75 120 M28.75 120 C0.6 95.56, 0.3 95.07, 28.75 72 M28.75 120 C-0.69 98.09, 1.87 95.54, 28.75 72 M28.75 72 C48.96 56.51, 64.13 41.93, 86.25 24 M28.75 72 C42.31 59.66, 57.84 48.87, 86.25 24 M86.25 24 C113.21 1.38, 114.69 -0.64, 143.75 24 M86.25 24 C113.54 2.18, 116.2 1.97, 143.75 24" stroke="#1e1e1e" stroke-width="1" fill="none"></path></g><g transform="translate(188.4375 170.41665649414062) rotate(0 46.5625 37.5)"><text x="46.5625" y="0" font-family="Virgil, Segoe UI Emoji" font-size="20px" fill="#1e1e1e" text-anchor="middle" style="white-space: pre;" direction="ltr" dominant-baseline="text-before-edge">Business </text><text x="46.5625" y="25" font-family="Virgil, Segoe UI Emoji" font-size="20px" fill="#1e1e1e" text-anchor="middle" style="white-space: pre;" direction="ltr" dominant-baseline="text-before-edge">DATA </text><text x="46.5625" y="50" font-family="Virgil, Segoe UI Emoji" font-size="20px" fill="#1e1e1e" text-anchor="middle" style="white-space: pre;" direction="ltr" dominant-baseline="text-before-edge">API</text></g><g stroke-linecap="round" transform="translate(506.5 10) rotate(0 185 77.5)"><path d="M14.34 48.24 C14.34 48.24, 14.34 48.24, 14.34 48.24 M14.34 48.24 C14.34 48.24, 14.34 48.24, 14.34 48.24 M2.78 64.8 C9.21 63.08, 15.87 56.88, 30.88 35.27 M3.19 67.46 C10.36 56.62, 20.65 49.64, 27.64 36.16 M0.2 73.42 C14 62.1, 23.78 49.3, 46.81 24.04 M1.24 73.25 C19.09 57.65, 30.26 42.55, 44.22 25.85 M6.51 75.21 C10.85 67.81, 25.4 56.24, 50.36 23 M1.91 80.41 C21.24 60.24, 37.82 37.4, 49.55 28.53 M2.46 82.19 C24.15 62.71, 40.35 37.43, 58.57 20.76 M6.37 84.32 C15.26 68.38, 27.94 56.31, 56.63 23.96 M7.08 89.14 C18.92 70.79, 36.3 59.86, 63.17 21.42 M5.65 89.16 C26.61 65.93, 46.06 37.92, 65.65 19.53 M3.57 90.99 C20.01 79.31, 33.7 60, 74 20.61 M5.9 92.85 C25.34 76.88, 38.74 55.99, 72.84 19.79 M10.91 96.46 C28.4 69.38, 55.76 50.53, 77.41 13.11 M9.51 98.29 C27.98 77.68, 45.88 57.17, 80.28 17.7 M13.63 100.93 C28.9 85.34, 46.27 63.42, 82.69 17 M12.28 101.76 C38.32 69.35, 65.87 34.59, 87.83 12.28 M16.14 101.55 C36.19 75.21, 64.95 39.26, 91.69 13.49 M15.17 101.6 C38.89 75.88, 60.66 51.72, 94.12 12.06 M20.48 110.16 C43.35 82.35, 64.23 46.08, 104 12.64 M17.54 106.69 C42.39 78.17, 65.14 49.18, 99.22 10.31 M16.68 112.37 C43.63 81.09, 70.81 52.44, 109.14 9.59 M20.91 109.1 C43.98 79.69, 73.95 48.36, 104.23 8.89 M19.78 108.7 C44.81 87.94, 58.41 69.93, 113.07 5.31 M21.42 112.79 C40.67 89.66, 57.81 70.29, 111.24 8.51 M24.25 110.21 C55.79 70.66, 94 37.73, 120.53 6.17 M25.68 114.79 C45.02 94.14, 64.73 68.92, 117.13 7.88 M25.64 114.85 C60.71 78.74, 96.46 40.63, 125.4 7.08 M27.9 117.15 C62.09 76.56, 97.21 39.51, 125.34 8.43 M33.66 116.14 C68 82.11, 94.62 46.84, 131.11 9.35 M32.34 121.11 C54.01 89.89, 80.24 58.16, 129.7 7.72 M34.55 123.22 C58.03 90.94, 88.03 64.26, 134.98 2.59 M35.2 122.81 C67.72 85.97, 98.96 48.39, 136.27 6.87 M37.44 120.05 C64.75 92.98, 91.18 68.31, 138.61 7.81 M40.33 121.97 C73.75 81.8, 111.36 36.78, 141.1 5.3 M43.45 126.98 C79.94 79.88, 118.03 38.84, 147.57 4.06 M43.83 127.06 C65.42 100.61, 86.53 74.95, 147.43 4.85 M45.96 125.65 C87.65 84.36, 129.93 33.12, 153.83 8.04 M47.76 125.76 C83.84 82.41, 123.88 37.74, 151.45 5.02 M49.75 126.37 C82.71 93.42, 112.58 55.09, 156.7 2.75 M50.66 127.9 C82.61 86.52, 118.66 46.25, 156.81 5.1 M49.99 130.98 C78.45 101.48, 108.35 69.74, 165.33 5.59 M52.01 129.86 C80.54 102.09, 108.21 71.14, 164.43 3.94 M54.63 132.46 C85.21 103.37, 113.72 64.23, 171 5.75 M58.09 133.8 C93.73 92.86, 129.37 49.68, 166.34 6.81 M63.41 133.85 C92.34 92.38, 132.45 56.79, 171.48 1.57 M62.38 136.07 C89.4 95.11, 121.91 63.28, 173.41 6.38 M63.65 134.85 C101.96 97.71, 129.54 58.82, 177.51 8.7 M64.82 137.44 C90.44 105.06, 116.16 77.93, 179.25 4.4 M68.55 138.92 C94.89 102, 123.14 73.08, 181.07 1.42 M67.49 139.71 C91.01 107.46, 115.15 79.24, 183.98 4.63 M72.89 139.97 C101.59 106.71, 132.51 65.79, 191.77 2.06 M73.86 139.98 C118.2 87.9, 161.43 36.7, 188.04 3.77 M80.15 141.15 C114.34 101.43, 145.01 54.73, 199.29 5.11 M77.22 143.03 C120.97 87.15, 163.16 38.6, 194.04 3.17 M78.12 145.05 C105.61 112.46, 135.85 81.3, 201.7 2.6 M79.79 143.03 C120.43 95.77, 158.07 48.21, 200.51 3.77 M84.72 146.54 C118.62 109.78, 143.8 78.7, 205.83 5.45 M84.01 141.99 C127.67 95.87, 169.65 48.07, 205.77 2.98 M88.27 141.65 C126.42 100.25, 163.15 59.9, 210.34 2.89 M88.18 146.19 C117.37 113.76, 141.56 84.92, 212.37 3.71 M94.59 142.94 C119.76 116.27, 149.99 78, 219.45 2.81 M95.04 147.08 C129.14 108.04, 162.5 70.34, 216.29 2.24 M102.02 146.39 C139.07 92.53, 180.54 41.82, 218.55 5.35 M98.2 147.77 C123.83 113.93, 154.41 79.81, 224.01 3.42 M103.82 151 C149.81 91.33, 192.91 39.51, 224.03 7.86 M102 148.2 C143.13 100.83, 183.07 52.14, 225.7 5.11 M110.5 150.44 C143.94 110.16, 181.89 62.13, 230.24 7.69 M107.29 148.3 C132.37 117.65, 161.85 85.1, 231.71 6.64 M112.9 151.92 C134.61 118.77, 161.29 90.97, 234.55 6.85 M111.9 148.48 C152.23 107.7, 191.23 62.86, 237 4.96 M117.92 146.79 C151.32 111.7, 185.34 76.09, 243.75 4.16 M117.83 151.77 C161.47 96.16, 208.01 40.22, 241.02 4.36 M122.8 149.72 C158.93 107.97, 191.88 69.47, 243.06 7.82 M119.03 152.54 C147.43 123.15, 175.07 88.08, 248.15 4.62 M126.95 153.25 C152.42 115.63, 174.93 92.54, 253.22 8.6 M124.54 150.66 C152.54 118.66, 181.02 88.57, 250.17 7.77 M128.21 153.22 C168.43 106.41, 204.31 61.06, 259.43 8.39 M132.28 150.45 C160.76 119.21, 189.46 82.41, 254.75 6.17 M132.67 153.66 C166.53 112.37, 201.11 74.8, 257.86 4.4 M134.31 153.14 C169.74 117.02, 204.62 74.28, 261.27 8.29 M138.95 155.59 C186.07 96.43, 226.78 47.38, 264.6 9.73 M142.51 151.26 C167.23 121.41, 194.24 90.18, 265.31 6.87 M149.3 152.47 C176.31 121.29, 198.08 93.08, 268.72 10.53 M147.11 151.62 C195.15 96.25, 242.15 39.93, 269.1 9.58 M148.62 157.03 C184.69 109.52, 218.32 75.84, 272.65 11.34 M149.18 151.73 C198.75 99.1, 245.09 45.92, 273.34 11.98 M158.83 152.92 C185.47 118.02, 208.15 87.96, 275.9 9.76 M154.44 154.98 C198.22 104.2, 243.57 49.45, 278.36 13.73 M161.25 154.31 C197.32 121.99, 228.76 84.12, 284.74 16.27 M161.04 155.84 C203.89 107.68, 246.75 59.83, 281.25 13.97 M167.64 156.79 C203.74 110.8, 240.61 66.27, 285.94 15.17 M166.08 154.3 C197.1 117.72, 226.29 84.9, 287.03 13.81 M171.95 152.01 C201.8 117.12, 234.63 80.46, 290.44 14.13 M170.77 156.04 C213.37 104.52, 258.77 52.98, 291.75 17.51 M176.61 154.73 C209.85 120.29, 239.87 77.34, 290.47 21.9 M178.16 155.14 C214.18 112.18, 251.87 69.36, 293.04 19.63 M184.31 153.52 C211.16 119.83, 244.08 85.92, 295.15 17.85 M182.36 154.26 C224.13 107.41, 268.75 59.21, 297.16 18.26 M189.02 157.63 C222.05 108.73, 263.2 62.36, 304.26 24.91 M187.01 155.05 C221.62 113.32, 259.18 71.46, 302.25 21.43 M193.03 154.08 C222.69 118.28, 256.9 75.36, 308.65 18.91 M191.75 156.89 C231.53 113.96, 268.9 67.1, 306.08 24.09 M195.26 156.51 C234.24 110.69, 277.5 68.76, 310.51 25.97 M195.97 157.26 C230.31 117.76, 262.27 76.69, 311.85 22.97 M199.8 156.16 C230.21 118.64, 256.38 90.24, 317.2 23.37 M200.75 156.26 C224.91 126.44, 250.75 99.23, 313.39 25.1 M205.46 153.14 C240.3 109.39, 282.29 63.33, 316.84 25.16 M205.92 155.47 C237.26 118.63, 272.88 79.35, 320.26 26.93 M214.22 154.37 C250.79 110.94, 288.9 62.26, 319.48 31.84 M211.87 157.46 C244.11 123.93, 274.52 86.23, 322.27 27.59 M221.58 157.16 C259.94 109.76, 301.37 60.69, 324.01 28.64 M217.42 156.89 C250.96 118.72, 279.92 83.14, 325.9 28.74 M226.94 152.86 C263.54 106.49, 303.84 58.28, 329.29 37 M223.56 153.79 C250.14 126.1, 274.19 96.21, 328.85 33.6 M231.99 150.48 C250.68 132.13, 270.23 106.37, 331.83 34.36 M231.31 152.67 C254.15 123.91, 278.82 98.35, 335.1 36.29 M235.06 156.33 C262.77 123.17, 291.34 91.78, 335.52 39.09 M233.52 155.76 C254.89 128.88, 275.24 106.6, 336.16 38.37 M237.5 157.6 C262.97 130.41, 292.66 99.89, 343.26 36.09 M240.69 154.18 C266.66 124.14, 288.73 94.98, 340.13 39.93 M247.4 148.54 C279.44 109.98, 312.93 74.53, 342.8 37.66 M246.07 151.6 C279.12 115.29, 314.71 78.69, 344.89 40.11 M257.97 150.56 C271.55 126.34, 295.74 97.5, 343 44.91 M255.57 147.99 C274.04 123.9, 293.36 101.79, 347.9 43.98 M262.58 146.58 C286.11 118.13, 312.23 82.47, 350.26 45.08 M264.13 147.5 C291.54 113.92, 321.01 78.5, 349.99 47.51 M273.13 149.22 C292.59 120.65, 312.34 88.28, 350.21 52.46 M269.64 146.18 C298.12 112.05, 325.82 82.2, 354.58 48 M278.4 143.85 C311.52 107.77, 335.64 76.71, 358.76 54.76 M276.64 144.64 C307.44 108.61, 334.79 74.58, 358.06 49.99 M279.78 139.28 C310.71 106.63, 339.96 83.8, 357.16 52.47 M283.54 142.28 C300.2 121.59, 313.9 104.42, 358.34 54.25 M286.33 138.57 C310.66 112.49, 337.19 85.21, 356.97 55.47 M291.08 137.67 C319.03 105.78, 344.78 74.5, 359.28 57.91 M297.13 138.71 C317.86 112.34, 344.42 81.52, 361.19 64.19 M296.16 135.79 C313.26 118.35, 324.71 104.68, 365.21 61.2 M301.69 136.51 C312.7 125.33, 329.55 107.49, 368.59 63.49 M301.62 139.45 C326.32 106.95, 350.43 80.84, 364.76 64.86 M312.18 132.83 C330.17 112.36, 347.65 88.64, 372.1 69.72 M312 133.17 C326.34 117.49, 338.14 100.98, 370.59 66.82 M315.41 133.45 C333.46 107.71, 351.87 93.58, 371.15 68.67 M318.88 129.5 C337.82 112.23, 352.31 91.07, 371.26 71.64 M327.64 129.73 C340.8 106.33, 357.17 95.86, 368.18 73.96 M327.14 125.34 C345.71 106.47, 359.5 90.68, 369.14 78.53 M340.4 120.08 C346.9 107.67, 358.49 96.6, 366.75 84.53 M338.27 120.92 C342.64 116.07, 350.38 105.12, 369.95 86.36" stroke="#b2f2bb" stroke-width="0.5" fill="none"></path><path d="M211.41 1.69 C230.27 1.51, 250.86 4.28, 268.65 8.29 C286.45 12.3, 304.38 19.33, 318.18 25.73 C331.98 32.14, 342.79 39.49, 351.45 46.72 C360.11 53.96, 367.86 61.14, 370.14 69.15 C372.43 77.15, 369.96 86.63, 365.17 94.75 C360.37 102.86, 352.22 110.96, 341.37 117.84 C330.53 124.73, 315.75 130.53, 300.09 136.07 C284.43 141.61, 266.04 147.89, 247.4 151.09 C228.76 154.29, 207.76 155.08, 188.25 155.27 C168.75 155.47, 149.39 154.89, 130.37 152.26 C111.35 149.62, 90.46 144.76, 74.13 139.45 C57.81 134.15, 43.35 127.14, 32.43 120.44 C21.5 113.74, 13.91 107.22, 8.57 99.25 C3.23 91.29, -0.6 81.15, 0.37 72.63 C1.35 64.11, 6.73 56.19, 14.42 48.15 C22.12 40.1, 33.53 30.9, 46.55 24.38 C59.57 17.86, 75.45 12.57, 92.55 9.03 C109.65 5.49, 118.94 3.35, 149.16 3.13 C179.39 2.91, 245.3 3.52, 273.91 7.71 C302.52 11.89, 322.3 27.15, 320.83 28.24 M245.49 3.84 C264.6 5.27, 283.11 11.25, 298.79 16.11 C314.48 20.98, 329.22 25.94, 339.6 33.03 C349.97 40.13, 355.99 50.54, 361.03 58.68 C366.08 66.83, 370.46 73.29, 369.84 81.91 C369.23 90.53, 365.46 102.4, 357.32 110.4 C349.18 118.4, 334.35 124.25, 321.01 129.88 C307.66 135.52, 294.68 140.44, 277.23 144.21 C259.78 147.98, 236.41 151.01, 216.33 152.48 C196.26 153.96, 176.14 154.39, 156.77 153.07 C137.41 151.75, 118.09 148.47, 100.13 144.56 C82.17 140.65, 63.02 135.41, 49.01 129.59 C35 123.77, 24.23 117.46, 16.06 109.62 C7.9 101.78, 1.53 90.6, 0.03 82.57 C-1.48 74.53, 2.53 69.22, 7.03 61.42 C11.53 53.63, 16.95 43.62, 27.04 35.79 C37.13 27.96, 51.31 19.59, 67.58 14.44 C83.86 9.29, 105.78 6.96, 124.68 4.88 C143.58 2.8, 161.26 2.17, 180.99 1.96 C200.72 1.74, 232.77 2.74, 243.07 3.59 C253.38 4.43, 243.94 5.63, 242.81 7.03" stroke="#1e1e1e" stroke-width="1" fill="none"></path></g><g transform="translate(586.8352470063676 62.699224458042565) rotate(0 104.8499984741211 25.000000000000007)"><text x="104.8499984741211" y="0" font-family="Virgil, Segoe UI Emoji" font-size="20px" fill="#1e1e1e" text-anchor="middle" style="white-space: pre;" direction="ltr" dominant-baseline="text-before-edge">Business partners in </text><text x="104.8499984741211" y="25" font-family="Virgil, Segoe UI Emoji" font-size="20px" fill="#1e1e1e" text-anchor="middle" style="white-space: pre;" direction="ltr" dominant-baseline="text-before-edge">supply chain</text></g><g stroke-linecap="round" transform="translate(605.5 256) rotate(0 212 125)"><path d="M29.51 61.43 C29.51 61.43, 29.51 61.43, 29.51 61.43 M29.51 61.43 C29.51 61.43, 29.51 61.43, 29.51 61.43 M5.95 92.14 C15.4 83.87, 33.23 64.62, 42.62 45.96 M7.78 95.29 C17.18 84.43, 26.33 72.28, 47.2 46.49 M4.71 104.82 C27.96 81.93, 44.92 51.02, 65.3 38.87 M5.54 102.53 C28.53 74.91, 49.08 51.1, 60.58 36.39 M1.79 105.85 C30.51 79.26, 49.6 50.12, 72.82 32.26 M1.84 109.98 C16.05 92.37, 31.79 75.95, 71.38 33.08 M6.86 117.79 C30.21 86.65, 45.06 67.43, 79.97 29.79 M3.39 116.31 C17.29 97.46, 30.75 80.02, 77.64 30.24 M4.87 121.01 C19.41 105.13, 36.44 90.12, 84.93 28.05 M1.6 122.44 C29.9 93.79, 56.29 59, 84.23 25.97 M-0.38 131.48 C24.26 100.47, 51.58 77.04, 88.75 21.91 M3.71 130.88 C36.66 90.66, 73.44 48.07, 91.95 27.52 M-0.45 130.51 C37.96 91.53, 82.77 51.96, 97.62 19.9 M4.14 134.79 C43.37 92.83, 77.66 49.7, 99.33 24.05 M1.87 137.28 C27.44 113.96, 51.08 86.62, 106.53 23.08 M4.17 140.04 C43.41 95.18, 86.06 49.57, 107.89 21.04 M1.59 146.26 C26.36 114.15, 50.07 93.04, 117.56 16.4 M6.55 142.01 C44.73 95.66, 82.5 51.44, 115.93 17.02 M7.1 145.55 C35.18 114.41, 68.9 78.1, 118.15 16.62 M6.69 149.41 C37.39 112.19, 67.54 77.44, 122.44 14.93 M3.86 155.31 C48.01 109.63, 93.84 56.91, 130.07 17.1 M5.77 154.09 C53.36 100.05, 96.63 45.37, 127.56 16.39 M10.62 157.32 C54.89 103.1, 104.65 53.62, 133.01 10.28 M10.7 158.1 C46.17 113.38, 82.53 73.46, 133.8 15.57 M7.36 162.16 C41.81 130.67, 66.77 101.99, 142.73 15.16 M7.46 164.05 C56.77 107.72, 105.13 52.16, 140.01 12.44 M9.37 165.69 C39.14 132.65, 64.83 103.53, 144.65 12.36 M10.73 166.1 C58.44 109.11, 107.95 51.96, 146.74 10.03 M14.17 168.91 C43.85 139.66, 72.15 102.27, 153.83 8.36 M13.19 171 C63.08 119.91, 109.66 66.41, 152.37 9.53 M16.86 170.26 C51.64 135.86, 77.49 105.78, 160.61 9.42 M18.02 174.34 C73.64 110.57, 126.42 47.02, 161.53 8.48 M20.12 172.39 C65 123.66, 114.08 68.04, 163.64 6.27 M22.04 174.11 C67.14 116.01, 121.01 57.15, 167.79 7.03 M21.74 181.87 C67.47 126.01, 112.13 74.35, 176.38 3.17 M23.95 178.53 C59.57 134.51, 100.04 88.59, 172.72 4.93 M26.63 178.32 C52.86 143.36, 86.18 106.97, 176.87 1.13 M27.29 181.1 C79.52 117.69, 135.82 53.11, 179.57 3.59 M28.95 182.26 C80.98 125.59, 125.69 73.64, 183.4 6.43 M28.96 185.69 C81.63 122.12, 134.46 59.73, 184.83 3.8 M30.75 190.15 C88.18 117.88, 140.6 58.11, 191.91 5.87 M32.3 188.84 C86.95 117.66, 148.26 49.84, 190.31 2.29 M36.67 188.25 C95.86 124.47, 155.61 58.35, 195.2 4.15 M35.02 190.78 C93.25 122, 151.72 55.01, 196.16 1.79 M39.98 195.21 C71.75 152.33, 108.35 110.41, 202.84 4.9 M36.28 191.4 C78.02 147.76, 118.1 103.4, 200.83 3.4 M37.48 195.93 C95.23 132.8, 152.75 68.52, 207.34 -0.13 M41.14 197.67 C86.84 143.24, 135.51 86.72, 208 1.95 M41.31 196.23 C110.79 124.13, 170.3 54.88, 212.63 1.49 M44.62 199.32 C94.16 141.27, 144.04 81.68, 212.17 3.3 M46.2 199.6 C102.88 125.8, 162.96 55.31, 219.36 0.34 M47.29 199.07 C96.81 141.92, 146.95 82.04, 217.82 4.14 M52.64 204.15 C115.25 122.48, 184.83 43.91, 226.7 3.57 M50.42 202.31 C110.54 133.76, 169.32 65.65, 224.52 2.53 M54.32 205.04 C116.41 134.99, 171.82 65.96, 231.31 -0.29 M52.64 204.62 C120.89 129.36, 186.88 52.4, 230.48 0.57 M58.86 206.12 C119.92 131.75, 186.09 55.08, 235.35 2.75 M56.17 206.36 C99.33 161.65, 138.42 116.8, 233.87 1.96 M57.02 208.83 C102.05 160.39, 145.98 114.93, 237.96 5.04 M60.89 209.01 C118.11 138.55, 175.84 70.2, 238.11 2.54 M62.1 211.2 C98.33 164.92, 137.49 121.75, 244.85 1.33 M64.3 210.51 C117.05 155.09, 164.75 98.69, 242.37 2.57 M67 215.78 C126.84 135.23, 198.86 62.7, 248.92 2.84 M65 214.35 C132.31 139.07, 200.62 62.61, 248.28 5.08 M70.95 216.13 C126.88 148.42, 184.65 84.68, 253.47 3.49 M68.82 215.58 C122.22 153.93, 171.31 95.53, 251.76 4.84 M74.03 217.08 C128.39 153.71, 186.76 85.03, 254.47 5.65 M73.63 219.07 C137.15 152.55, 194.57 82.46, 257.45 7.47 M78.9 221.15 C136.25 146.47, 201.61 76.11, 262.6 5.15 M75.59 219.52 C131.65 154.53, 185.95 93.1, 260.41 6.33 M79.92 223.51 C123.03 168.43, 167.39 121.27, 267.34 10.65 M79.27 221.86 C123.39 167.07, 167.88 115.8, 266.62 7.61 M87.44 225.31 C153.47 141.98, 231.11 54.58, 271.44 11.06 M83.41 223.6 C120.99 181.54, 159.3 134.42, 271.93 7.96 M87.72 227 C141.46 155.48, 199.76 90.14, 273.16 12.49 M89.28 224.63 C165.3 141.31, 237.48 57.89, 276.16 9.71 M92.83 227.98 C141.03 176.7, 184.24 127.59, 282.23 11.82 M93.99 226.24 C138.24 175.47, 182.78 122.49, 280.49 10.79 M98.68 228.27 C155.91 159.02, 213.9 91.72, 284.31 9.97 M96.79 227.99 C136.75 178.68, 180.5 129.81, 283.29 11.38 M99.12 227.39 C160.56 159.18, 220.43 94.14, 287.02 15.1 M102.17 229.09 C177.02 145.77, 250.54 62.05, 289.57 12.33 M104.58 232.1 C157.86 170.07, 205.65 107.11, 297.75 12.01 M104.89 231.25 C154.76 171.74, 204.41 112.65, 296.05 11.17 M107.74 231.13 C167.61 164.39, 226.42 96.3, 297.56 15.24 M108.29 231.02 C148.73 187.55, 186.97 141.83, 297.86 14.09 M114.22 233.07 C185.57 148.7, 257.59 65.95, 306.34 15.02 M112.29 234.68 C181.57 153.79, 251.78 71.41, 303.74 14.66 M114.49 235.03 C189.81 149.19, 260.07 68.95, 304.12 17.52 M116.59 235.59 C159.49 184.69, 198.95 138.1, 308.01 17.05 M120.28 236.56 C170.8 179.51, 225.55 115.97, 312.91 17.26 M120.84 238.03 C173.26 173.84, 225.65 111.92, 310.66 17.08 M124.65 238.3 C186.82 162.65, 255.56 93.66, 313.23 16.96 M124.72 237.59 C177.99 175.07, 234.55 109.63, 314.53 20.11 M126.36 237.84 C195.67 160.59, 264.63 77.61, 318.08 20.31 M128.1 239 C189.8 172.08, 249.79 101.31, 319.4 21.39 M131.9 240.46 C184.75 177.8, 234.7 115.92, 326 20.95 M134.21 242.51 C195.44 175.67, 252.27 106.15, 322.82 23.15 M139.28 241.44 C203.55 166.12, 266.15 93.8, 325.88 23.08 M139.08 242.23 C182.48 188.9, 228.42 136.14, 325.96 24.76 M140.67 242.85 C198.39 173.02, 255.69 104.74, 334.52 22.93 M141.37 242.54 C189.32 187.21, 236.36 133.51, 331.96 23.26 M143.51 245.55 C221 158.25, 293.19 72.6, 334.81 24.83 M145.16 245.12 C218.06 158.62, 293.17 75.75, 336.26 26.06 M153.2 244.18 C200.55 188.65, 249.62 130.25, 340.73 24.94 M152.77 243.6 C210.63 176.08, 272.29 108.22, 340.18 26.73 M158.8 243.33 C203 199.51, 244.52 148.71, 340.72 28.13 M156.21 246.73 C218.18 171.11, 281.76 98.89, 343.62 30.42 M157.71 245.7 C226.85 166.9, 298.04 89.3, 344.16 32.4 M160.03 245.07 C204.88 200.32, 248.27 150.07, 346.02 30.34 M165.67 244.12 C224.23 174.89, 280.92 103.31, 351.34 30.62 M163.71 246.34 C211.42 186.83, 262.15 130.49, 350.64 33.36 M169 246.75 C237.62 168.6, 301.21 92.96, 353.72 35.92 M169.7 248.82 C226.7 179.03, 283.72 109.53, 355.58 34.82 M176.81 250.15 C242.71 166.91, 306.04 88.58, 360.39 38.63 M174.48 248.74 C208.44 205.12, 247.36 163.22, 356.97 38.94 M179.14 252.37 C217.29 201.01, 259.3 159.38, 363.83 41.6 M179.75 250.09 C217.49 201.18, 257.83 156.34, 360.15 40.36 M181.41 250.94 C220.97 205.55, 270.13 151.47, 363.13 38.99 M183.73 251.42 C242.91 180.55, 303.53 113.45, 364.5 42.32 M186.66 249.44 C258.26 172.66, 329.43 89.93, 366.51 45.96 M185.97 251.9 C220.88 206.65, 258.02 163.47, 368.4 44.31 M193.24 249.27 C244.38 194.33, 291.32 136.15, 374.26 43.29 M190.96 253.5 C240.57 192.77, 294.65 134.66, 371.93 44.92 M196.88 249.13 C265.08 178.35, 327.57 108.33, 374.75 50.47 M199.18 250.68 C235.74 202.8, 279.22 154.87, 375.83 48.02 M202.25 253.88 C265.98 177.67, 328.73 103.63, 380.67 48.24 M202.52 252.83 C258.92 185.81, 314.22 125.23, 378.39 50.04 M211.08 249.8 C260.05 191.45, 318.25 129.18, 380.79 53.02 M207.95 253.07 C261.64 191.58, 312.45 131.48, 383.15 53.14 M216.44 250.31 C260.62 196.02, 314.38 138.7, 382.38 57.04 M212.94 252.84 C262.42 197.46, 312.36 143.03, 386.02 54.93 M217.1 250.92 C260.6 198.72, 305.3 147.55, 388.16 53.39 M217.77 251.08 C269.43 189.83, 318.62 131.44, 389.63 56.05 M225.04 249.56 C280.52 185.79, 334.8 123.5, 394.12 58.91 M222.93 253.34 C262.92 207.57, 300.98 165.98, 392.99 60.14 M228.6 252.3 C279.36 197.48, 328.67 138.25, 392.16 61.16 M228.88 251.13 C289.09 186.03, 348.1 119.57, 393.97 63.45 M231.91 248.85 C280.98 198.1, 329.32 144.8, 395.87 65.77 M233.37 250.28 C280.62 202.81, 323.47 150.95, 396.72 66.53 M237.37 250.81 C295.09 183.51, 356.15 117.97, 400.02 67.52 M240.92 250.36 C282.94 195.05, 328.99 145.21, 400.05 69.09 M246.6 253.94 C294.92 194.18, 342.5 143.48, 400.85 69.87 M247.09 250.41 C288.23 203.24, 334.38 151.86, 402.82 72.79 M248.6 250.18 C295.76 205.39, 336.54 159.87, 403.96 73.26 M251.16 251 C305.46 190.3, 358.04 129.59, 404.7 73.85 M255.63 247.76 C309.7 182.21, 366.54 117.56, 405.93 74.27 M258.39 248.63 C319.25 180.74, 378.53 112.37, 409.11 78.58 M267.56 248.36 C306.86 203.21, 344.95 156.4, 408.86 80.51 M265.5 249.24 C307.91 202.8, 345.27 160.18, 410.54 82.4 M269.59 250.4 C305.21 207.61, 343.94 163.08, 415.24 82.69 M272.09 245.68 C312.89 195.47, 358.06 142.45, 414.32 82.02 M280.92 242.76 C326.75 190.63, 369.09 141.24, 415.21 90.23 M278.88 245.72 C313.49 208.03, 346.24 165.05, 417.1 88.64 M287.4 240.34 C330.09 185.95, 380.52 130.67, 415.91 88.9 M285.8 242.47 C311.94 211.38, 341.72 182.52, 419.9 88.45 M288 246.04 C314.43 213.46, 337.97 182.01, 421.11 92.55 M291.62 241.64 C334.9 186.15, 382.38 131.12, 421.09 95.9 M298.73 240.78 C332.6 197.7, 374.14 154.84, 419.69 98.11 M298.42 242 C322.89 213.49, 344.74 183.92, 421.1 99.31 M306.59 239.36 C353.25 186.79, 388.91 139.88, 418.75 105.43 M306.97 238.56 C342.52 196.23, 379.91 153.07, 422.44 106.59 M314.72 231.86 C348.51 196.69, 385.21 160.27, 422.78 110.71 M314.09 232.57 C348.39 200.29, 377.66 163.13, 420.34 110.2 M324.94 234.67 C358.22 195.34, 388.46 158.82, 419.57 113.81 M320.56 230.13 C351.45 194.53, 384.29 154.93, 424.67 115.78 M330.69 227.28 C366.64 182.43, 398.42 144.65, 421.88 118.87 M331.67 228.58 C350.94 202.71, 370.52 179.32, 423.21 122.27 M340.09 227.98 C354.9 201.92, 376.08 177.44, 421.7 125.69 M337.76 223.5 C368.96 189.79, 403.83 151.85, 419.43 130.66 M348.13 218.98 C363.12 203.84, 379.86 188.88, 418.53 135.3 M346.04 223.32 C360.47 203.06, 379.2 180.61, 418.35 137.08 M354.99 218.23 C375.41 190.93, 394.34 168.75, 422.4 141.68 M356.45 216.58 C369.51 197.31, 388.23 178.08, 421.13 141.88 M367.62 207.56 C386.91 184.54, 403.4 161.98, 420.11 151.09 M366.82 209.52 C383.87 191.7, 399.72 172.43, 416.87 152.43 M383.61 200.68 C397.46 181.74, 409.74 168.98, 416.85 158.15 M382.24 197.48 C393.48 183.66, 404.97 172.89, 415.79 156.66" stroke="#ffc9c9" stroke-width="0.5" fill="none"></path><path d="M178.8 2.53 C196.48 -1.37, 217.28 -0.89, 236.68 0.67 C256.08 2.22, 276.93 6.91, 295.21 11.85 C313.48 16.79, 331.1 23.2, 346.33 30.31 C361.56 37.41, 375 44.92, 386.61 54.5 C398.21 64.08, 410 76.67, 415.97 87.79 C421.94 98.91, 422.3 109.48, 422.42 121.22 C422.53 132.95, 421.63 146.84, 416.66 158.2 C411.68 169.57, 403.07 179.53, 392.57 189.41 C382.06 199.3, 368.19 209.76, 353.62 217.52 C339.04 225.27, 322.65 230.59, 305.13 235.96 C287.6 241.33, 268.46 247.38, 248.47 249.73 C228.48 252.07, 205.42 251.82, 185.17 250.02 C164.92 248.21, 145.19 243.92, 126.97 238.89 C108.75 233.86, 90.66 227.27, 75.85 219.82 C61.04 212.38, 49.35 203.55, 38.12 194.21 C26.9 184.88, 14.81 175, 8.5 163.83 C2.19 152.66, 0.76 138.84, 0.27 127.19 C-0.21 115.54, 0.67 104.94, 5.59 93.92 C10.51 82.9, 19.41 71.48, 29.81 61.08 C40.21 50.67, 53.05 39.32, 68.01 31.49 C82.96 23.66, 96.56 19.23, 119.55 14.11 C142.53 8.98, 186.95 2.25, 205.94 0.73 C224.92 -0.79, 233.02 3.28, 233.45 5 M47.04 47.35 C55.25 37.3, 70.28 30.4, 86.74 23.89 C103.2 17.39, 126.78 12.09, 145.81 8.33 C164.83 4.57, 181.76 2.28, 200.9 1.31 C220.04 0.33, 240.99 -0.15, 260.64 2.49 C280.29 5.13, 301.48 11.59, 318.82 17.17 C336.16 22.75, 350.8 27.9, 364.68 35.95 C378.56 44.01, 393.26 54.43, 402.1 65.49 C410.94 76.54, 414.07 89.94, 417.74 102.28 C421.41 114.62, 425.48 128.07, 424.14 139.52 C422.8 150.98, 417.8 160.27, 409.69 171.01 C401.57 181.75, 388.24 194.64, 375.45 203.98 C362.66 213.31, 348.73 220.86, 332.97 227.02 C317.2 233.17, 299.62 237.01, 280.87 240.93 C262.11 244.85, 240.23 249.45, 220.43 250.53 C200.63 251.62, 181.35 250.57, 162.09 247.44 C142.82 244.31, 121.74 237.54, 104.86 231.75 C87.99 225.95, 74.54 220.94, 60.83 212.67 C47.12 204.4, 31.77 192.36, 22.61 182.11 C13.44 171.86, 9.79 162.92, 5.84 151.18 C1.88 139.43, -3.07 123.78, -1.14 111.64 C0.79 99.51, 9.15 89.52, 17.4 78.38 C25.66 67.23, 43.54 49.3, 48.4 44.78 C53.25 40.26, 44.66 49.9, 46.51 51.26" stroke="#1e1e1e" stroke-width="1" fill="none"></path></g><g transform="translate(672.6308684919675 343.6116523516815) rotate(0 144.96249389648438 37.5)"><text x="144.96249389648438" y="0" font-family="Virgil, Segoe UI Emoji" font-size="20px" fill="#1e1e1e" text-anchor="middle" style="white-space: pre;" direction="ltr" dominant-baseline="text-before-edge">External partners - AI model</text><text x="144.96249389648438" y="25" font-family="Virgil, Segoe UI Emoji" font-size="20px" fill="#1e1e1e" text-anchor="middle" style="white-space: pre;" direction="ltr" dominant-baseline="text-before-edge">builders / BI &amp; analytics </text><text x="144.96249389648438" y="50" font-family="Virgil, Segoe UI Emoji" font-size="20px" fill="#1e1e1e" text-anchor="middle" style="white-space: pre;" direction="ltr" dominant-baseline="text-before-edge">and more</text></g><g mask="url(#mask-iLETJbVg7CdIJS6bJ-PY1)" stroke-linecap="round"><g transform="translate(259.56703063746266 331.209446310186) rotate(0 161.12107427887378 29.4708231155563)"><path d="M0.73 0.11 C54.59 10.09, 268.87 48.89, 322.59 58.84 M-0.35 -0.87 C53.41 9.3, 267.88 49.5, 321.71 59.82" stroke="#1e1e1e" stroke-width="1" fill="none"></path></g><g transform="translate(259.56703063746266 331.209446310186) rotate(0 161.12107427887378 29.4708231155563)"><path d="M292.29 64.85 C297.83 64.22, 306.88 60.25, 319.73 60.73 M291.84 65.13 C302.22 63.88, 311.36 61.14, 320.85 59.92" stroke="#1e1e1e" stroke-width="1" fill="none"></path></g><g transform="translate(259.56703063746266 331.209446310186) rotate(0 161.12107427887378 29.4708231155563)"><path d="M296.1 44.69 C300.52 49.17, 308.61 50.29, 319.73 60.73 M295.66 44.97 C304.74 49.93, 312.71 53.43, 320.85 59.92" stroke="#1e1e1e" stroke-width="1" fill="none"></path></g></g><mask id="mask-iLETJbVg7CdIJS6bJ-PY1"><rect x="0" y="0" fill="#fff" width="682.0399940435848" height="491.1185177817631"></rect><rect x="337.0160138664026" y="336.1639820459745" fill="#000" width="167.5749969482422" height="50" opacity="1"></rect></mask><g transform="translate(337.01601386640266 336.16398204597454) rotate(0 83.67209104993378 24.51628737976779)"><text x="83.7874984741211" y="0" font-family="Virgil, Segoe UI Emoji" font-size="20px" fill="#1e1e1e" text-anchor="middle" style="white-space: pre;" direction="ltr" dominant-baseline="text-before-edge">Anonymous data </text><text x="83.7874984741211" y="25" font-family="Virgil, Segoe UI Emoji" font-size="20px" fill="#1e1e1e" text-anchor="middle" style="white-space: pre;" direction="ltr" dominant-baseline="text-before-edge">monetization</text></g><g stroke-linecap="round"><g transform="translate(321.5 115) rotate(0 83.22625654749572 -18.607119140550495)"><path d="M-1.19 -0.93 C26.85 -7.45, 139.79 -32.12, 167.64 -38.41 M0.38 1.2 C28.38 -5.21, 139.06 -30.61, 167.03 -37.09" stroke="#1e1e1e" stroke-width="1" fill="none"></path></g><g transform="translate(321.5 115) rotate(0 83.22625654749572 -18.607119140550495)"><path d="M140.32 -19.69 C147.38 -26.41, 153.28 -27.84, 166.05 -38.65 M141.07 -20.08 C147.93 -24.96, 152.16 -28.15, 166.07 -36.79" stroke="#1e1e1e" stroke-width="1" fill="none"></path></g><g transform="translate(321.5 115) rotate(0 83.22625654749572 -18.607119140550495)"><path d="M135.71 -39.69 C144.04 -41.36, 151.09 -37.8, 166.05 -38.65 M136.46 -40.07 C144.42 -40.59, 149.66 -39.37, 166.07 -36.79" stroke="#1e1e1e" stroke-width="1" fill="none"></path></g></g><mask></mask><g stroke-linecap="round"><g transform="translate(497.5 128) rotate(0 -61.71202011085114 13.397452427353699)"><path d="M1.09 -0.48 C-19.69 3.86, -103.03 22.41, -123.72 27.03 M0.21 -1.78 C-20.79 2.69, -103.93 23.51, -124.52 28.58" stroke="#1e1e1e" stroke-width="1" fill="none"></path></g><g transform="translate(497.5 128) rotate(0 -61.71202011085114 13.397452427353699)"><path d="M-100.43 12.3 C-108.94 20.02, -118.11 26.37, -126.06 28.36 M-99.15 10.85 C-108.15 16.89, -117.61 24.56, -124.66 28.73" stroke="#1e1e1e" stroke-width="1" fill="none"></path></g><g transform="translate(497.5 128) rotate(0 -61.71202011085114 13.397452427353699)"><path d="M-95.49 32.22 C-106.04 32.38, -117.1 31.14, -126.06 28.36 M-94.21 30.77 C-104.88 29.77, -116.09 30.4, -124.66 28.73" stroke="#1e1e1e" stroke-width="1" fill="none"></path></g></g><mask></mask></svg>